<?xml version="1.0" encoding="UTF-8" standalone="no"?>
<svg width="93px" height="119px" viewBox="0 0 93 119" version="1.1" xmlns="http://www.w3.org/2000/svg" xmlns:xlink="http://www.w3.org/1999/xlink">
    <!-- Generator: sketchtool 40.3 (33839) - http://www.bohemiancoding.com/sketch -->
    <title>2DD2AE2B-3F09-4F1C-9FAB-6A98F57A4A03</title>
    <desc>Created with sketchtool.</desc>
    <defs></defs>
    <g id="Page-1" stroke="none" stroke-width="1" fill="none" fill-rule="evenodd">
        <g id="Desktop" transform="translate(-467.000000, -1125.000000)">
            <g id="Group-4" transform="translate(373.000000, 1095.000000)">
                <rect id="Rectangle-24" x="0" y="0" width="280" height="300"></rect>
                <g id="water-drop" transform="translate(94.000000, 30.000000)" fill="#1966C1">
                    <g id="Capa_1">
                        <path d="M70.5314952,27.2134828 C59.7310952,12.7502931 48.7759905,1.04901724 48.6658667,0.932655172 C48.1072762,0.337948276 47.3254857,0 46.5067905,0 C45.6878,0 44.9057143,0.337655172 44.347419,0.932655172 C44.2378857,1.04901724 33.2824857,12.7502931 22.4820857,27.2134828 C7.72874286,46.9695345 0.248295238,62.3055862 0.248295238,72.7948793 C0.248295238,98.1178448 20.9996952,118.720672 46.5067905,118.720672 C72.014181,118.720672 92.765581,98.118431 92.765581,72.7948793 C92.765581,62.3055862 85.2848381,46.9698276 70.5314952,27.2134828 L70.5314952,27.2134828 Z M51.1266762,103.858862 C48.7018857,104.427776 46.2021048,104.716483 43.6978952,104.716483 C25.8968095,104.716483 11.4144952,90.3382931 11.4144952,72.6656207 C11.4144952,70.2293448 12.1700095,65.8149138 15.7692571,58.6218621 C16.1309238,57.8987759 16.9637905,57.5400172 17.7435143,57.7695172 C18.5226476,57.9996034 19.0218952,58.7534655 18.9265333,59.5548103 C18.8438667,60.2468276 18.8022381,60.8983966 18.8022381,61.4913448 C18.8022381,80.4343276 32.3731524,96.8894483 51.0711714,100.615966 C51.8408571,100.769845 52.3997429,101.43519 52.4130286,102.214845 C52.4269048,102.995379 51.8913429,103.67919 51.1266762,103.858862 L51.1266762,103.858862 Z" id="Shape"></path>
                    </g>
                </g>
            </g>
        </g>
    </g>
</svg>