<?xml version="1.0" encoding="UTF-8" standalone="no"?>
<svg width="115px" height="117px" viewBox="0 0 115 117" version="1.1" xmlns="http://www.w3.org/2000/svg" xmlns:xlink="http://www.w3.org/1999/xlink">
    <!-- Generator: sketchtool 40.3 (33839) - http://www.bohemiancoding.com/sketch -->
    <title>93A2C114-1F38-4F8B-8163-7CDEBA1A49C0</title>
    <desc>Created with sketchtool.</desc>
    <defs></defs>
    <g id="Page-1" stroke="none" stroke-width="1" fill="none" fill-rule="evenodd">
        <g id="Desktop" transform="translate(-786.000000, -1145.000000)">
            <g id="Group-5" transform="translate(700.000000, 1112.000000)">
                <g id="Group-12" transform="translate(85.000000, 33.000000)">
                    <path d="M66.94,73.1402657 C67.144,72.2795094 67.284,71.3687091 67.326,70.3938526 C68.134,52.6922988 58.47,38.1975628 43.984,28.8793753 C35.368,23.3345032 27.196,29.379815 25.12,37.0885884 C19.78,32.8348508 10.532,39.200444 14.692,46.1925878 C14.844,46.4468112 15,46.7030363 15.156,46.9592614 C10.98,46.9432474 -2.328,46.9012104 1.398,46.963265 C5.802,47.0393318 16.37,58.9017549 16.37,58.9017549 L16.37,48.8929605 C19.616,53.861326 23.766,58.5094101 29.942,59.2120275 C32.758,59.5343107 35.084,58.6615438 36.996,57.1342018 C39.41,60.0907996 40.64,63.4097159 40.88,67.393216 C38.766,67.3611879 36.646,67.4472635 34.506,67.6974834 C27.124,68.5682485 22.568,70.1956784 21.076,77.9244695 C18.832,89.5827131 24.89,98.0981954 31.424,107.010026 C36.74,114.258395 48.976,107.234223 43.59,99.8837643 C39.186,93.8784877 34.756,88.9441521 34.938,81.9660206 C39.242,81.3114455 43.522,81.4876003 47.892,81.9059679 C50.03,82.8267769 52.442,83.1991041 54.83,83.0129405 C58.392,94.9334146 65.156,105.550744 73.916,114.606701 C80.248,121.154454 90.202,111.159672 83.88,104.639943 C75.194,95.6480425 69.376,85.2449017 66.94,73.1402657 L66.94,73.1402657 Z" id="Shape" fill="#1966C1"></path>
                    <path d="M13.61,15.9159848 C13.628,16.1161607 13.634,16.3163366 13.662,16.5185142 C14.56,23.0442482 20.57,27.6062566 27.086,26.7074669 C33.606,25.8106789 38.158,19.7973953 37.266,13.2716613 C37.082,11.9144688 36.666,10.651359 36.078,9.49834586 C36.48,9.30417525 36.662,8.84176895 36.526,7.87892293 L36.138,5.03042005 C35.698,1.84562168 32.764,-0.384337704 29.586,0.0560492485 L16.902,1.79757947 C13.712,2.23796642 11.49,5.17454669 11.928,8.36334858 L12.238,10.667373 C10.46,12.0866201 8.958,13.880196 9.284,15.781867 C9.568,17.4693497 11.436,17.0509821 13.61,15.9159848 L13.61,15.9159848 Z" id="Shape" fill="#1966C1"></path>
                    <path d="M45.788,26.8215672 C45.788,26.8215672 74.348,42.1470331 70.974,64.7348802 C63.578,83.5674277 95.872,102.964471 113.432,59.5303072 C113.43,59.5303072 135.79,0.00200175887 45.788,26.8215672 L45.788,26.8215672 Z M94.142,62.2647098 L94.142,65.8959004 L90.282,65.8959004 L90.282,62.478898 C88.494,62.3107502 86.716,61.7202314 85.566,60.9035138 L85.024,60.5131708 L86.424,56.5937269 L87.364,57.2202774 C88.582,58.0349933 90.156,58.5054066 91.664,58.5054066 C93.51,58.5054066 94.742,57.5465641 94.742,56.1233136 C94.742,55.1624693 94.36,54.1195529 91.534,52.9745469 C88.55,51.8055197 85.492,50.1020229 85.492,46.3947654 C85.492,43.4141465 87.45,41.0901044 90.52,40.3154237 L90.52,36.7863228 L94.346,36.7863228 L94.346,40.0752127 C95.808,40.2233428 97.086,40.6296999 98.236,41.3042926 L98.878,41.6846268 L97.418,45.5440179 L96.518,45.0315676 C95.99,44.729302 94.744,44.0146741 92.766,44.0146741 C90.816,44.0146741 90.122,45.0395747 90.122,45.9984172 C90.122,47.03733 90.638,47.709921 93.704,48.9830397 C96.356,50.0639894 99.41,51.8295408 99.41,55.8911095 C99.404,58.9678129 97.318,61.4539974 94.142,62.2647098 L94.142,62.2647098 Z" id="Shape" fill="#1966C1"></path>
                    <ellipse id="Oval-2" fill="#1966C1" cx="93.352381" cy="50.7735849" rx="12.7047619" ry="20.9716981"></ellipse>
                    <g id="apple" transform="translate(91.247120, 48.302526) rotate(-19.000000) translate(-91.247120, -48.302526) translate(80.747120, 35.302526)" fill="#FBFBFB">
                        <g id="Layer_1" transform="translate(0.000000, 0.000000)">
                            <g id="XMLID_228_">
                                <path d="M1.14887316,9.33226814 C-1.00745923,13.0566354 0.363361032,18.7085678 2.74791258,22.1355351 C3.93818129,23.8488522 5.14325206,25.3867925 6.79380596,25.3867925 C6.82491535,25.3867925 6.85610837,25.3862098 6.88805403,25.3849613 C7.66353087,25.3541642 8.22391804,25.1165272 8.76573994,24.8868807 C9.37404561,24.628851 10.0031745,24.3620816 10.9899778,24.3620816 C11.9287789,24.3620816 12.5278856,24.6201946 13.1072562,24.8697342 C13.678264,25.1156116 14.2664155,25.3699789 15.1354714,25.353748 C16.9946756,25.3192886 18.1361896,23.6597414 19.1433143,22.1957143 C20.1942598,20.6670964 20.7214469,19.1829263 20.8993223,18.6157603 L20.9065143,18.5932036 C20.9403834,18.4924055 20.8925485,18.3823683 20.7954571,18.3380039 C20.792781,18.3367553 20.782913,18.3326768 20.7801533,18.3315115 C20.452752,18.1982517 17.58082,16.9301606 17.5506305,13.4738944 C17.5226154,10.6658655 19.7051231,9.17886533 20.1428289,8.90934915 L20.163234,8.89669737 C20.2106507,8.86631646 20.2436836,8.81812317 20.2548896,8.76302134 C20.2660957,8.70800275 20.2543879,8.65073681 20.2226094,8.60445793 C18.7161456,6.41020671 16.4071932,6.07951253 15.477591,6.03972601 C15.3427001,6.02632512 15.2034604,6.01958305 15.0636354,6.01958305 C13.9717962,6.01958305 12.9258683,6.43001673 12.0855803,6.75979533 C11.5055407,6.98744411 11.0045289,7.18404609 10.6589805,7.18404609 C10.2706985,7.18404609 9.76684348,6.98503028 9.18337515,6.75463474 C8.40313155,6.4464141 7.51877185,6.09715843 6.58256316,6.09715843 C6.56023464,6.09715843 6.53824064,6.09740813 6.51658114,6.09782431 C4.33976005,6.12970346 2.28286063,7.36924482 1.14887316,9.33226814 L1.14887316,9.33226814 Z" id="XMLID_229_"></path>
                                <path d="M15.4795145,0.00016647077 C14.1612958,0.053603588 12.5799854,0.86123653 11.6348286,1.96310656 C10.8315875,2.88926669 10.0469116,4.43344955 10.2536386,5.98995125 C10.2666008,6.08733665 10.3462141,6.16249821 10.4446435,6.17007263 C10.5336231,6.17698116 10.6244424,6.18047705 10.7149273,6.18056028 C12.0038763,6.18056028 13.394349,5.47081216 14.3439381,4.32799032 C15.3433691,3.12124371 15.8487294,1.57256613 15.6958585,0.185365203 C15.6838162,0.0766597897 15.5877283,-0.00407853387 15.4795145,0.00016647077 L15.4795145,0.00016647077 Z" id="XMLID_230_"></path>
                            </g>
                        </g>
                    </g>
                </g>
            </g>
        </g>
    </g>
</svg>