<?xml version="1.0" encoding="UTF-8" standalone="no"?>
<svg width="191px" height="26px" viewBox="0 0 191 26" version="1.1" xmlns="http://www.w3.org/2000/svg" xmlns:xlink="http://www.w3.org/1999/xlink">
    <!-- Generator: Sketch 40.3 (33839) - http://www.bohemiancoding.com/sketch -->
    <title>isa</title>
    <desc>Created with Sketch.</desc>
    <defs></defs>
    <g id="Page-1" stroke="none" stroke-width="1" fill="none" fill-rule="evenodd">
        <path d="M1.5725,8.41 L4.7225,8.41 L4.7225,25 L1.5725,25 L1.5725,8.41 Z M0.8375,2.46 C0.8375,1.82999685 1.06499772,1.28750227 1.52,0.8325 C1.97500228,0.377497725 2.51749685,0.15 3.1475,0.15 C3.77750315,0.15 4.31999772,0.377497725 4.775,0.8325 C5.23000227,1.28750227 5.4575,1.82999685 5.4575,2.46 C5.4575,3.09000315 5.23000227,3.63249772 4.775,4.0875 C4.31999772,4.54250228 3.77750315,4.77 3.1475,4.77 C2.51749685,4.77 1.97500228,4.54250228 1.52,4.0875 C1.06499772,3.63249772 0.8375,3.09000315 0.8375,2.46 L0.8375,2.46 Z M18.5475,12.575 C18.1741648,12.108331 17.7133361,11.7175016 17.165,11.4025 C16.6166639,11.0874984 15.9458373,10.93 15.1525,10.93 C14.4058296,10.93 13.7583361,11.0874984 13.21,11.4025 C12.6616639,11.7175016 12.3875,12.1783303 12.3875,12.785 C12.3875,13.2750025 12.5449984,13.6716652 12.86,13.975 C13.1750016,14.2783348 13.5483312,14.5233324 13.98,14.71 C14.4116688,14.8966676 14.8724975,15.0366662 15.3625,15.13 C15.8525025,15.2233338 16.2724983,15.3049996 16.6225,15.375 C17.29917,15.5383342 17.934997,15.7366655 18.53,15.97 C19.125003,16.2033345 19.6383312,16.5066648 20.07,16.88 C20.5016688,17.2533352 20.8399988,17.7083307 21.085,18.245 C21.3300012,18.7816693 21.4525,19.4349961 21.4525,20.205 C21.4525,21.138338 21.2541686,21.9374967 20.8575,22.6025 C20.4608314,23.2675033 19.9475031,23.8099979 19.3175,24.23 C18.6874968,24.6500021 17.970004,24.9533324 17.165,25.14 C16.359996,25.3266676 15.5491707,25.42 14.7325,25.42 C13.3558264,25.42 12.1483385,25.2100021 11.11,24.79 C10.0716615,24.3699979 9.14417075,23.6000056 8.3275,22.48 L10.7075,20.52 C11.2208359,21.0333359 11.7924969,21.4883313 12.4225,21.885 C13.0525032,22.2816687 13.8224955,22.48 14.7325,22.48 C15.1291686,22.48 15.5316646,22.4391671 15.94,22.3575 C16.3483354,22.2758329 16.7099984,22.1475009 17.025,21.9725 C17.3400016,21.7974991 17.5966657,21.5758347 17.795,21.3075 C17.9933343,21.0391653 18.0925,20.7300017 18.0925,20.38 C18.0925,19.913331 17.9466681,19.5283348 17.655,19.225 C17.3633319,18.9216652 17.0133354,18.6825009 16.605,18.5075 C16.1966646,18.3324991 15.7650023,18.1925005 15.31,18.0875 C14.8549977,17.9824995 14.4525018,17.8950003 14.1025,17.825 C13.4258299,17.6616658 12.7841697,17.475001 12.1775,17.265 C11.5708303,17.054999 11.034169,16.7750018 10.5675,16.425 C10.100831,16.0749982 9.7275014,15.6316694 9.4475,15.095 C9.1674986,14.5583307 9.0275,13.8933373 9.0275,13.1 C9.0275,12.2366623 9.20833153,11.4841699 9.57,10.8425 C9.93166848,10.2008301 10.409997,9.6700021 11.005,9.25 C11.600003,8.8299979 12.2766629,8.51500105 13.035,8.305 C13.7933371,8.09499895 14.5574961,7.99 15.3275,7.99 C16.4475056,7.99 17.5208282,8.1999979 18.5475,8.62 C19.5741718,9.0400021 20.3908303,9.7399951 20.9975,10.72 L18.5475,12.575 Z M25.3375,10.44 C26.2241711,9.62332925 27.2508275,9.01083537 28.4175,8.6025 C29.5841725,8.19416462 30.7508275,7.99 31.9175,7.99 C33.1308394,7.99 34.1749956,8.14166515 35.05,8.445 C35.9250044,8.74833485 36.6424972,9.1566641 37.2025,9.67 C37.7625028,10.1833359 38.1766653,10.7724967 38.445,11.4375 C38.7133347,12.1025033 38.8475,12.7966631 38.8475,13.52 L38.8475,21.99 C38.8475,22.5733363 38.8591665,23.1099976 38.8825,23.6 C38.9058334,24.0900024 38.9408331,24.5566644 38.9875,25 L36.1875,25 C36.1174997,24.1599958 36.0825,23.3200042 36.0825,22.48 L36.0125,22.48 C35.3124965,23.5533387 34.4841714,24.3116645 33.5275,24.755 C32.5708286,25.1983355 31.4625063,25.42 30.2025,25.42 C29.4324961,25.42 28.6975035,25.3150011 27.9975,25.105 C27.2974965,24.8949989 26.6850026,24.5800021 26.16,24.16 C25.6349974,23.7399979 25.2208348,23.2208364 24.9175,22.6025 C24.6141652,21.9841636 24.4625,21.2666708 24.4625,20.45 C24.4625,19.3766613 24.7016643,18.478337 25.18,17.755 C25.6583357,17.031663 26.3116625,16.4425023 27.14,15.9875 C27.9683375,15.5324977 28.9366611,15.2058343 30.045,15.0075 C31.1533389,14.8091657 32.3374937,14.71 33.5975,14.71 L35.9075,14.71 L35.9075,14.01 C35.9075,13.5899979 35.8258342,13.1700021 35.6625,12.75 C35.4991659,12.3299979 35.2541683,11.950835 34.9275,11.6125 C34.6008317,11.274165 34.1925024,11.0058343 33.7025,10.8075 C33.2124976,10.6091657 32.62917,10.51 31.9525,10.51 C31.3458303,10.51 30.8150023,10.5683328 30.36,10.685 C29.9049977,10.8016673 29.4908352,10.9474991 29.1175,11.1225 C28.7441648,11.2975009 28.4058349,11.5016655 28.1025,11.735 C27.7991651,11.9683345 27.5075014,12.189999 27.2275,12.4 L25.3375,10.44 Z M34.2275,17.02 C33.4808296,17.02 32.7166706,17.0608329 31.935,17.1425 C31.1533294,17.2241671 30.4416699,17.3816655 29.8,17.615 C29.1583301,17.8483345 28.6333354,18.1749979 28.225,18.595 C27.8166646,19.0150021 27.6125,19.5516634 27.6125,20.205 C27.6125,21.1616715 27.9333301,21.8499979 28.575,22.27 C29.2166699,22.6900021 30.0858278,22.9 31.1825,22.9 C32.0458377,22.9 32.7808303,22.7541681 33.3875,22.4625 C33.9941697,22.1708319 34.4841648,21.791669 34.8575,21.325 C35.2308352,20.858331 35.4991659,20.3391695 35.6625,19.7675 C35.8258342,19.1958305 35.9075,18.6300028 35.9075,18.07 L35.9075,17.02 L34.2275,17.02 Z" id="isa" fill="#74B7FF"></path>
        <path class="logo-second-part" d="M43.7425,8.41 L46.8925,8.41 L46.8925,25 L43.7425,25 L43.7425,8.41 Z M43.0075,2.46 C43.0075,1.82999685 43.2349977,1.28750227 43.69,0.8325 C44.1450023,0.377497725 44.6874968,0.15 45.3175,0.15 C45.9475031,0.15 46.4899977,0.377497725 46.945,0.8325 C47.4000023,1.28750227 47.6275,1.82999685 47.6275,2.46 C47.6275,3.09000315 47.4000023,3.63249772 46.945,4.0875 C46.4899977,4.54250228 45.9475031,4.77 45.3175,4.77 C44.6874968,4.77 44.1450023,4.54250228 43.69,4.0875 C43.2349977,3.63249772 43.0075,3.09000315 43.0075,2.46 L43.0075,2.46 Z M51.8975,8.41 L55.0475,8.41 L55.0475,10.965 L55.1175,10.965 C55.5141687,10.0783289 56.2024951,9.36083607 57.1825,8.8125 C58.1625049,8.26416393 59.2941602,7.99 60.5775,7.99 C61.3708373,7.99 62.1349963,8.11249877 62.87,8.3575 C63.6050037,8.60250122 64.2466639,8.9816641 64.795,9.495 C65.3433361,10.0083359 65.7808317,10.667496 66.1075,11.4725 C66.4341683,12.277504 66.5975,13.2283278 66.5975,14.325 L66.5975,25 L63.4475,25 L63.4475,15.2 C63.4475,14.4299962 63.342501,13.7708361 63.1325,13.2225 C62.9224989,12.6741639 62.6425017,12.230835 62.2925,11.8925 C61.9424983,11.554165 61.5400023,11.3091674 61.085,11.1575 C60.6299977,11.0058326 60.1575024,10.93 59.6675,10.93 C59.0141634,10.93 58.4075028,11.034999 57.8475,11.245 C57.2874972,11.455001 56.7975021,11.7874977 56.3775,12.2425 C55.9574979,12.6975023 55.6308345,13.2749965 55.3975,13.975 C55.1641655,14.6750035 55.0475,15.5033286 55.0475,16.46 L55.0475,25 L51.8975,25 L51.8975,8.41 Z M80.1775,12.575 C79.8041648,12.108331 79.3433361,11.7175016 78.795,11.4025 C78.2466639,11.0874984 77.5758373,10.93 76.7825,10.93 C76.0358296,10.93 75.3883361,11.0874984 74.84,11.4025 C74.2916639,11.7175016 74.0175,12.1783303 74.0175,12.785 C74.0175,13.2750025 74.1749984,13.6716652 74.49,13.975 C74.8050016,14.2783348 75.1783312,14.5233324 75.61,14.71 C76.0416688,14.8966676 76.5024976,15.0366662 76.9925,15.13 C77.4825024,15.2233338 77.9024982,15.3049996 78.2525,15.375 C78.92917,15.5383342 79.564997,15.7366655 80.16,15.97 C80.755003,16.2033345 81.2683312,16.5066648 81.7,16.88 C82.1316688,17.2533352 82.4699988,17.7083307 82.715,18.245 C82.9600012,18.7816693 83.0825,19.4349961 83.0825,20.205 C83.0825,21.138338 82.8841686,21.9374967 82.4875,22.6025 C82.0908314,23.2675033 81.5775031,23.8099979 80.9475,24.23 C80.3174968,24.6500021 79.600004,24.9533324 78.795,25.14 C77.989996,25.3266676 77.1791707,25.42 76.3625,25.42 C74.9858264,25.42 73.7783385,25.2100021 72.74,24.79 C71.7016615,24.3699979 70.7741707,23.6000056 69.9575,22.48 L72.3375,20.52 C72.8508359,21.0333359 73.4224969,21.4883313 74.0525,21.885 C74.6825032,22.2816687 75.4524955,22.48 76.3625,22.48 C76.7591686,22.48 77.1616646,22.4391671 77.57,22.3575 C77.9783354,22.2758329 78.3399984,22.1475009 78.655,21.9725 C78.9700016,21.7974991 79.2266657,21.5758347 79.425,21.3075 C79.6233343,21.0391653 79.7225,20.7300017 79.7225,20.38 C79.7225,19.913331 79.5766681,19.5283348 79.285,19.225 C78.9933319,18.9216652 78.6433354,18.6825009 78.235,18.5075 C77.8266646,18.3324991 77.3950023,18.1925005 76.94,18.0875 C76.4849977,17.9824995 76.0825018,17.8950003 75.7325,17.825 C75.0558299,17.6616658 74.4141697,17.475001 73.8075,17.265 C73.2008303,17.054999 72.664169,16.7750018 72.1975,16.425 C71.730831,16.0749982 71.3575014,15.6316694 71.0775,15.095 C70.7974986,14.5583307 70.6575,13.8933373 70.6575,13.1 C70.6575,12.2366623 70.8383315,11.4841699 71.2,10.8425 C71.5616685,10.2008301 72.039997,9.6700021 72.635,9.25 C73.230003,8.8299979 73.9066629,8.51500105 74.665,8.305 C75.4233371,8.09499895 76.1874961,7.99 76.9575,7.99 C78.0775056,7.99 79.1508282,8.1999979 80.1775,8.62 C81.2041718,9.0400021 82.0208303,9.7399951 82.6275,10.72 L80.1775,12.575 Z M101.5975,25 L98.4475,25 L98.4475,22.445 L98.3775,22.445 C97.9808313,23.3316711 97.2925049,24.0491639 96.3125,24.5975 C95.3324951,25.1458361 94.2008398,25.42 92.9175,25.42 C92.1008293,25.42 91.330837,25.2975012 90.6075,25.0525 C89.8841631,24.8074988 89.2483361,24.4283359 88.7,23.915 C88.1516639,23.4016641 87.7141683,22.742504 87.3875,21.9375 C87.0608317,21.132496 86.8975,20.1816721 86.8975,19.085 L86.8975,8.41 L90.0475,8.41 L90.0475,18.21 C90.0475,18.9800039 90.152499,19.6391639 90.3625,20.1875 C90.5725011,20.7358361 90.8524983,21.179165 91.2025,21.5175 C91.5525018,21.855835 91.9549977,22.1008326 92.41,22.2525 C92.8650023,22.4041674 93.3374976,22.48 93.8275,22.48 C94.4808366,22.48 95.0874972,22.3750011 95.6475,22.165 C96.2075028,21.9549989 96.6974979,21.6225023 97.1175,21.1675 C97.5375021,20.7124977 97.8641655,20.1350035 98.0975,19.435 C98.3308345,18.7349965 98.4475,17.9066714 98.4475,16.95 L98.4475,8.41 L101.5975,8.41 L101.5975,25 Z M106.3575,8.41 L109.5075,8.41 L109.5075,10.965 L109.5775,10.965 C109.787501,10.5216644 110.067498,10.1191685 110.4175,9.7575 C110.767502,9.39583152 111.158331,9.08666795 111.59,8.83 C112.021669,8.57333205 112.494164,8.36916742 113.0075,8.2175 C113.520836,8.06583258 114.034164,7.99 114.5475,7.99 C115.060836,7.99 115.527498,8.0599993 115.9475,8.2 L115.8075,11.595 C115.550832,11.5249996 115.294168,11.4666669 115.0375,11.42 C114.780832,11.3733331 114.524168,11.35 114.2675,11.35 C112.727492,11.35 111.549171,11.7816624 110.7325,12.645 C109.915829,13.5083376 109.5075,14.8499909 109.5075,16.67 L109.5075,25 L106.3575,25 L106.3575,8.41 Z M119.3775,10.44 C120.264171,9.62332925 121.290827,9.01083537 122.4575,8.6025 C123.624172,8.19416462 124.790827,7.99 125.9575,7.99 C127.170839,7.99 128.214996,8.14166515 129.09,8.445 C129.965004,8.74833485 130.682497,9.1566641 131.2425,9.67 C131.802503,10.1833359 132.216665,10.7724967 132.485,11.4375 C132.753335,12.1025033 132.8875,12.7966631 132.8875,13.52 L132.8875,21.99 C132.8875,22.5733363 132.899167,23.1099976 132.9225,23.6 C132.945833,24.0900024 132.980833,24.5566644 133.0275,25 L130.2275,25 C130.1575,24.1599958 130.1225,23.3200042 130.1225,22.48 L130.0525,22.48 C129.352496,23.5533387 128.524171,24.3116645 127.5675,24.755 C126.610829,25.1983355 125.502506,25.42 124.2425,25.42 C123.472496,25.42 122.737503,25.3150011 122.0375,25.105 C121.337497,24.8949989 120.725003,24.5800021 120.2,24.16 C119.674997,23.7399979 119.260835,23.2208364 118.9575,22.6025 C118.654165,21.9841636 118.5025,21.2666708 118.5025,20.45 C118.5025,19.3766613 118.741664,18.478337 119.22,17.755 C119.698336,17.031663 120.351663,16.4425023 121.18,15.9875 C122.008337,15.5324977 122.976661,15.2058343 124.085,15.0075 C125.193339,14.8091657 126.377494,14.71 127.6375,14.71 L129.9475,14.71 L129.9475,14.01 C129.9475,13.5899979 129.865834,13.1700021 129.7025,12.75 C129.539166,12.3299979 129.294168,11.950835 128.9675,11.6125 C128.640832,11.274165 128.232502,11.0058343 127.7425,10.8075 C127.252498,10.6091657 126.66917,10.51 125.9925,10.51 C125.38583,10.51 124.855002,10.5683328 124.4,10.685 C123.944998,10.8016673 123.530835,10.9474991 123.1575,11.1225 C122.784165,11.2975009 122.445835,11.5016655 122.1425,11.735 C121.839165,11.9683345 121.547501,12.189999 121.2675,12.4 L119.3775,10.44 Z M128.2675,17.02 C127.52083,17.02 126.756671,17.0608329 125.975,17.1425 C125.193329,17.2241671 124.48167,17.3816655 123.84,17.615 C123.19833,17.8483345 122.673335,18.1749979 122.265,18.595 C121.856665,19.0150021 121.6525,19.5516634 121.6525,20.205 C121.6525,21.1616715 121.97333,21.8499979 122.615,22.27 C123.25667,22.6900021 124.125828,22.9 125.2225,22.9 C126.085838,22.9 126.82083,22.7541681 127.4275,22.4625 C128.03417,22.1708319 128.524165,21.791669 128.8975,21.325 C129.270835,20.858331 129.539166,20.3391695 129.7025,19.7675 C129.865834,19.1958305 129.9475,18.6300028 129.9475,18.07 L129.9475,17.02 L128.2675,17.02 Z M137.4725,8.41 L140.6225,8.41 L140.6225,10.965 L140.6925,10.965 C141.089169,10.0783289 141.777495,9.36083607 142.7575,8.8125 C143.737505,8.26416393 144.86916,7.99 146.1525,7.99 C146.945837,7.99 147.709996,8.11249877 148.445,8.3575 C149.180004,8.60250122 149.821664,8.9816641 150.37,9.495 C150.918336,10.0083359 151.355832,10.667496 151.6825,11.4725 C152.009168,12.277504 152.1725,13.2283278 152.1725,14.325 L152.1725,25 L149.0225,25 L149.0225,15.2 C149.0225,14.4299962 148.917501,13.7708361 148.7075,13.2225 C148.497499,12.6741639 148.217502,12.230835 147.8675,11.8925 C147.517498,11.554165 147.115002,11.3091674 146.66,11.1575 C146.204998,11.0058326 145.732502,10.93 145.2425,10.93 C144.589163,10.93 143.982503,11.034999 143.4225,11.245 C142.862497,11.455001 142.372502,11.7874977 141.9525,12.2425 C141.532498,12.6975023 141.205834,13.2749965 140.9725,13.975 C140.739166,14.6750035 140.6225,15.5033286 140.6225,16.46 L140.6225,25 L137.4725,25 L137.4725,8.41 Z M168.7975,12.82 C168.214164,12.2133303 167.60167,11.7525016 166.96,11.4375 C166.31833,11.1224984 165.554171,10.965 164.6675,10.965 C163.804162,10.965 163.05167,11.1224984 162.41,11.4375 C161.76833,11.7525016 161.231669,12.1841639 160.8,12.7325 C160.368331,13.2808361 160.041668,13.9108298 159.82,14.6225 C159.598332,15.3341702 159.4875,16.0749962 159.4875,16.845 C159.4875,17.6150038 159.615832,18.3441632 159.8725,19.0325 C160.129168,19.7208368 160.490831,20.3216641 160.9575,20.835 C161.424169,21.3483359 161.984163,21.7508319 162.6375,22.0425 C163.290837,22.3341681 164.025829,22.48 164.8425,22.48 C165.729171,22.48 166.487497,22.3225016 167.1175,22.0075 C167.747503,21.6924984 168.330831,21.2316697 168.8675,20.625 L171.1075,22.865 C170.290829,23.7750045 169.340005,24.4283314 168.255,24.825 C167.169995,25.2216687 166.020839,25.42 164.8075,25.42 C163.52416,25.42 162.351672,25.2100021 161.29,24.79 C160.228328,24.3699979 159.312504,23.7808371 158.5425,23.0225 C157.772496,22.2641629 157.177502,21.354172 156.7575,20.2925 C156.337498,19.230828 156.1275,18.0583397 156.1275,16.775 C156.1275,15.4916602 156.337498,14.3133387 156.7575,13.24 C157.177502,12.1666613 157.766663,11.2450039 158.525,10.475 C159.283337,9.70499615 160.193328,9.10416882 161.255,8.6725 C162.316672,8.24083118 163.500827,8.025 164.8075,8.025 C166.020839,8.025 167.181661,8.24083118 168.29,8.6725 C169.398339,9.10416882 170.360829,9.7633289 171.1775,10.65 L168.7975,12.82 Z M176.1825,17.86 C176.1825,18.583337 176.339998,19.242497 176.655,19.8375 C176.970002,20.432503 177.384164,20.9399979 177.8975,21.36 C178.410836,21.7800021 179.00583,22.1066655 179.6825,22.34 C180.35917,22.5733345 181.059163,22.69 181.7825,22.69 C182.762505,22.69 183.614163,22.4625023 184.3375,22.0075 C185.060837,21.5524977 185.72583,20.9516704 186.3325,20.205 L188.7125,22.025 C186.962491,24.2883446 184.512516,25.42 181.3625,25.42 C180.055827,25.42 178.871672,25.1983355 177.81,24.755 C176.748328,24.3116645 175.850004,23.6991706 175.115,22.9175 C174.379996,22.1358294 173.814169,21.214172 173.4175,20.1525 C173.020831,19.090828 172.8225,17.9416729 172.8225,16.705 C172.8225,15.4683272 173.038331,14.319172 173.47,13.2575 C173.901669,12.195828 174.496663,11.2741706 175.255,10.4925 C176.013337,9.71082942 176.917495,9.09833555 177.9675,8.655 C179.017505,8.21166445 180.160827,7.99 181.3975,7.99 C182.867507,7.99 184.109995,8.2466641 185.125,8.76 C186.140005,9.2733359 186.974163,9.94416252 187.6275,10.7725 C188.280837,11.6008375 188.753332,12.5341615 189.045,13.5725 C189.336668,14.6108385 189.4825,15.6666613 189.4825,16.74 L189.4825,17.86 L176.1825,17.86 Z M186.1225,15.34 C186.099167,14.6399965 185.988334,13.9983362 185.79,13.415 C185.591666,12.8316637 185.294169,12.3241688 184.8975,11.8925 C184.500831,11.4608312 184.005003,11.1225012 183.41,10.8775 C182.814997,10.6324988 182.120837,10.51 181.3275,10.51 C180.557496,10.51 179.85167,10.6558319 179.21,10.9475 C178.56833,11.2391681 178.025836,11.618331 177.5825,12.085 C177.139164,12.551669 176.795001,13.0708305 176.55,13.6425 C176.304999,14.2141695 176.1825,14.7799972 176.1825,15.34 L186.1225,15.34 Z" id="insurance" fill="#FFFFFF"></path>
    </g>
</svg>