<?xml version="1.0" encoding="UTF-8" standalone="no"?>
<svg width="86px" height="110px" viewBox="0 0 86 110" version="1.1" xmlns="http://www.w3.org/2000/svg" xmlns:xlink="http://www.w3.org/1999/xlink">
    <!-- Generator: sketchtool 40 (33762) - http://www.bohemiancoding.com/sketch -->
    <title>C95C8FC1-4F7A-4C8C-A839-DCBB10E0271E</title>
    <desc>Created with sketchtool.</desc>
    <defs></defs>
    <g id="Page-1" stroke="none" stroke-width="1" fill="none" fill-rule="evenodd">
        <g id="Desktop" transform="translate(-475.000000, -987.000000)">
            <g id="FILL-FORM" transform="translate(475.000000, 987.000000)">
                <g id="1477414046_icon-57" transform="translate(1.000000, 1.000000)">
                    <g id="Layer_1">
                        <g id="Layer_2">
                            <g id="Group">
                                <rect id="Rectangle-path-top" stroke="#1966C1" stroke-width="2" x="0.0574657795" y="0.12661485" width="83.2577548" height="107.298907"></rect>
                                <rect id="Rectangle-path" fill="#1966C1" x="7.26926236" y="14.5654356" width="24.2362719" height="35.9007586"></rect>
                                <rect id="Rectangle-path" fill="#1966C1" x="38.2833213" y="14.5654356" width="37.9972624" height="2.25658106"></rect>
                                <rect id="Rectangle-path" fill="#1966C1" x="38.2833213" y="19.3640001" width="37.9972624" height="2.25658106"></rect>
                                <rect id="Rectangle-path" fill="#1966C1" x="38.2833213" y="24.1625645" width="37.9972624" height="2.25658106"></rect>
                                <rect id="Rectangle-path" fill="#1966C1" x="38.2833213" y="28.9614461" width="37.9972624" height="2.25658106"></rect>
                                <rect id="Rectangle-path" fill="#1966C1" x="38.2833213" y="33.7600105" width="37.9972624" height="2.25658106"></rect>
                                <rect id="Rectangle-path" fill="#1966C1" x="38.2833213" y="38.5588921" width="37.9972624" height="2.25658106"></rect>
                                <rect id="Rectangle-path" fill="#1966C1" x="38.2833213" y="43.3574565" width="37.9972624" height="2.25658106"></rect>
                                <rect id="Rectangle-path" fill="#1966C1" x="38.2833213" y="48.1563381" width="37.9972624" height="2.25658106"></rect>
                                <rect id="Rectangle-path" fill="#1966C1" x="7.26926236" y="59.089467" width="69.0113213" height="2.25658106"></rect>
                                <rect id="Rectangle-path" fill="#1966C1" x="7.26926236" y="63.8880314" width="69.0113213" height="2.25658106"></rect>
                                <rect id="Rectangle-path" fill="#1966C1" x="7.26926236" y="68.686913" width="69.0113213" height="2.25658106"></rect>
                                <rect id="Rectangle-path" fill="#1966C1" x="7.26926236" y="73.4854774" width="69.0113213" height="2.25658106"></rect>
                                <rect id="Rectangle-path" fill="#1966C1" x="3.30094867" y="102.44652" width="76.9479487" height="1.12829053"></rect>
                                <path d="M41.6222293,81.3134895 C36.7744156,81.3134895 32.8439591,85.2392814 32.8439591,90.0813416 C32.8439591,94.9234019 36.7744156,98.8491938 41.6222293,98.8491938 C46.472997,98.8491938 50.4034535,94.9234019 50.4034535,90.0813416 C50.4034535,85.2392814 46.472997,81.3134895 41.6222293,81.3134895 L41.6222293,81.3134895 Z M41.6222293,96.68459 C37.9726731,96.68459 35.0111348,93.729517 35.0111348,90.0813416 C35.0111348,86.4331663 37.9726731,83.475411 41.6222293,83.475411 C45.2747394,83.475411 48.2360092,86.4334345 48.2360092,90.0813416 C48.2360092,93.7292488 45.2744709,96.68459 41.6222293,96.68459 L41.6222293,96.68459 Z" id="Shape" fill="#1966C1"></path>
                                <ellipse id="Oval" fill="#1966C1" cx="41.6233035" cy="90.0802687" rx="3.8273344" ry="3.82279211"></ellipse>
                            </g>
                        </g>
                    </g>
                </g>
            </g>
        </g>
    </g>
</svg>