<?xml version="1.0" encoding="UTF-8" standalone="no"?>
<svg width="97px" height="94px" viewBox="0 0 97 94" version="1.1" xmlns="http://www.w3.org/2000/svg" xmlns:xlink="http://www.w3.org/1999/xlink">
    <!-- Generator: sketchtool 40.3 (33839) - http://www.bohemiancoding.com/sketch -->
    <title>3A627933-EAC9-4E94-A690-BD1F29067CED</title>
    <desc>Created with sketchtool.</desc>
    <defs></defs>
    <g id="Page-1" stroke="none" stroke-width="1" fill="none" fill-rule="evenodd">
        <g id="Desktop" transform="translate(-734.000000, -2614.000000)" stroke-width="3" stroke="#1966C1">
            <g id="phone" transform="translate(734.000000, 2614.000000)">
                <g id="Layer_1" transform="translate(2.000000, 2.000000)">
                    <g id="Group">
                        <path d="M27.9932098,77.027232 C22.7675516,77.027232 18.5132054,72.7761088 18.5132054,67.5109562 L18.5132054,9.61377857 C18.5132054,4.36812657 22.7481254,0.0975028253 27.9932098,0.0975028253 L30.4409158,0.0975028253 C35.666574,0.0975028253 39.9209203,4.34862601 39.9209203,9.61377857 L39.9209203,67.5109562 C39.9209203,72.7566082 35.6860003,77.027232 30.4409158,77.027232 L27.9932098,77.027232 L27.9932098,77.027232 Z" id="Shape"></path>
                        <path d="M80.5411851,11.6613379 L45.7293656,11.6613379 C44.8940373,11.6613379 44.2335452,12.3438577 44.2335452,13.1628814 L44.2335452,67.8034647 C44.2335452,75.2916817 38.191985,81.3563574 30.7323094,81.3563574 L27.7212424,81.3563574 C20.2615668,81.3563574 14.2200066,75.2916817 14.2200066,67.8034647 L14.2200066,13.1628814 C14.2200066,12.3243571 13.5400883,11.6613379 12.7241863,11.6613379 C5.71131414,11.6613379 0.0194262386,17.3750035 0.0194262386,24.4147074 L0.0194262386,76.8322263 C0.0194262386,83.8719303 5.71131414,89.5855958 12.7241863,89.5855958 L80.5606114,89.5855958 C87.5734835,89.5855958 93.2653714,83.8719303 93.2653714,76.8322263 L93.2653714,24.4147074 C93.2459451,17.3750035 87.5540572,11.6613379 80.5411851,11.6613379 L80.5411851,11.6613379 Z M59.3277326,59.2622172 C59.3277326,60.1007415 58.6478143,60.7637607 57.8319122,60.7637607 L53.0336313,60.7637607 C52.198303,60.7637607 51.5378109,60.0812409 51.5378109,59.2622172 L51.5378109,54.4455776 C51.5378109,53.6070533 52.2177293,52.9440341 53.0336313,52.9440341 L57.8319122,52.9440341 C58.6672405,52.9440341 59.3277326,53.6265539 59.3277326,54.4455776 L59.3277326,59.2622172 L59.3277326,59.2622172 Z M59.3277326,47.3083708 C59.3277326,48.1468951 58.6478143,48.8099143 57.8319122,48.8099143 L53.0336313,48.8099143 C52.198303,48.8099143 51.5378109,48.1273945 51.5378109,47.3083708 L51.5378109,42.4917312 C51.5378109,41.6532069 52.2177293,40.9901877 53.0336313,40.9901877 L57.8319122,40.9901877 C58.6672405,40.9901877 59.3277326,41.6727075 59.3277326,42.4917312 L59.3277326,47.3083708 L59.3277326,47.3083708 Z M59.3277326,35.3545244 C59.3277326,36.1930487 58.6478143,36.8560679 57.8319122,36.8560679 L53.0336313,36.8560679 C52.198303,36.8560679 51.5378109,36.1735482 51.5378109,35.3545244 L51.5378109,30.5378849 C51.5378109,29.6993606 52.2177293,29.0363414 53.0336313,29.0363414 L57.8319122,29.0363414 C58.6672405,29.0363414 59.3277326,29.7188611 59.3277326,30.5378849 L59.3277326,35.3545244 L59.3277326,35.3545244 Z M72.3433124,59.2622172 C72.3433124,60.1007415 71.6633941,60.7637607 70.8474921,60.7637607 L66.0492111,60.7637607 C65.2138829,60.7637607 64.5533908,60.0812409 64.5533908,59.2622172 L64.5533908,54.4455776 C64.5533908,53.6070533 65.2333091,52.9440341 66.0492111,52.9440341 L70.8474921,52.9440341 C71.6828203,52.9440341 72.3433124,53.6265539 72.3433124,54.4455776 L72.3433124,59.2622172 L72.3433124,59.2622172 Z M72.3433124,47.3083708 C72.3433124,48.1468951 71.6633941,48.8099143 70.8474921,48.8099143 L66.0492111,48.8099143 C65.2138829,48.8099143 64.5533908,48.1273945 64.5533908,47.3083708 L64.5533908,42.4917312 C64.5533908,41.6532069 65.2333091,40.9901877 66.0492111,40.9901877 L70.8474921,40.9901877 C71.6828203,40.9901877 72.3433124,41.6727075 72.3433124,42.4917312 L72.3433124,47.3083708 L72.3433124,47.3083708 Z M72.3433124,35.3545244 C72.3433124,36.1930487 71.6633941,36.8560679 70.8474921,36.8560679 L66.0492111,36.8560679 C65.2138829,36.8560679 64.5533908,36.1735482 64.5533908,35.3545244 L64.5533908,30.5378849 C64.5533908,29.6993606 65.2333091,29.0363414 66.0492111,29.0363414 L70.8474921,29.0363414 C71.6828203,29.0363414 72.3433124,29.7188611 72.3433124,30.5378849 L72.3433124,35.3545244 L72.3433124,35.3545244 Z M85.3394661,59.2622172 C85.3394661,60.1007415 84.6595477,60.7637607 83.8436457,60.7637607 L79.0453648,60.7637607 C78.2100365,60.7637607 77.5495444,60.0812409 77.5495444,59.2622172 L77.5495444,54.4455776 C77.5495444,53.6070533 78.2294627,52.9440341 79.0453648,52.9440341 L83.8436457,52.9440341 C84.6789739,52.9440341 85.3394661,53.6265539 85.3394661,54.4455776 L85.3394661,59.2622172 L85.3394661,59.2622172 Z M85.3394661,47.3083708 C85.3394661,48.1468951 84.6595477,48.8099143 83.8436457,48.8099143 L79.0453648,48.8099143 C78.2100365,48.8099143 77.5495444,48.1273945 77.5495444,47.3083708 L77.5495444,42.4917312 C77.5495444,41.6532069 78.2294627,40.9901877 79.0453648,40.9901877 L83.8436457,40.9901877 C84.6789739,40.9901877 85.3394661,41.6727075 85.3394661,42.4917312 L85.3394661,47.3083708 L85.3394661,47.3083708 Z M85.3394661,35.3545244 C85.3394661,36.1930487 84.6595477,36.8560679 83.8436457,36.8560679 L79.0453648,36.8560679 C78.2100365,36.8560679 77.5495444,36.1735482 77.5495444,35.3545244 L77.5495444,30.5378849 C77.5495444,29.6993606 78.2294627,29.0363414 79.0453648,29.0363414 L83.8436457,29.0363414 C84.6789739,29.0363414 85.3394661,29.7188611 85.3394661,30.5378849 L85.3394661,35.3545244 L85.3394661,35.3545244 Z" id="Shape"></path>
                    </g>
                </g>
            </g>
        </g>
    </g>
</svg>