<?xml version="1.0" encoding="UTF-8" standalone="no"?>
<svg width="100px" height="100px" viewBox="0 0 100 100" version="1.1" xmlns="http://www.w3.org/2000/svg" xmlns:xlink="http://www.w3.org/1999/xlink">
    <!-- Generator: Sketch 3.7 (28169) - http://www.bohemiancoding.com/sketch -->
    <title>Shape</title>
    <desc>Created with Sketch.</desc>
    <defs></defs>
    <g id="Page-1" stroke="none" stroke-width="1" fill="none" fill-rule="evenodd">
        <path d="M49.986,0 C22.372,0 -0.014,22.386 -0.014,50 C-0.014,77.614 22.372,100 49.986,100 C77.6,100 99.986,77.614 99.986,50 C99.986,22.386 77.601,0 49.986,0 L49.986,0 Z" id="Shape" fill="#1966C1"></path>
        <g id="1478277117_box" transform="translate(19.000000, 20.000000)">
            <g id="Group">
                <polygon id="Shape" stroke="#1966C1" fill="#FFFFFF" points="0.985 15 30.986 0.014 60.987 15 60.97 16.981 30.986 31.985 0.997 17.005 0.985 15"></polygon>
                <polygon id="Shape" stroke="#1966C1" fill="#FFFFFF" points="0.986 15 30.963 29.999 60.986 15 60.986 45 30.877 60 0.986 45 0.986 15"></polygon>
                <polygon id="Shape" stroke="#1966C1" fill="#FFFFFF" points="30.986 59.945 30.986 29.987 30.963 29.999 0.986 15 0.986 45 30.877 60"></polygon>
                <polygon id="Shape" fill="#1966C1" points="42.99 23.991 42.99 32.783 45.668 32.999 47.375 30.966 48.982 31.219 48.982 20.997"></polygon>
                <polygon id="Shape" fill="#1966C1" points="12.967 9.015 43.477 24.294 48.979 21.034 18.979 6.011"></polygon>
                <path d="M24.979,43.122 L14.995,38.112 C14.444,37.835 13.997,38.172 13.997,38.863 L13.997,45.124 C13.997,45.816 14.444,46.602 14.995,46.878 L24.979,51.888 C25.53,52.164 25.977,51.827 25.977,51.136 L25.977,44.875 C25.977,44.184 25.529,43.398 24.979,43.122 L24.979,43.122 Z M22.482,48.131 L16.492,45.124 C16.217,44.986 15.993,44.594 15.993,44.248 C15.993,43.902 16.217,43.734 16.492,43.872 L22.482,46.878 C22.757,47.017 22.981,47.409 22.981,47.755 C22.981,48.101 22.758,48.269 22.482,48.131 L22.482,48.131 Z M23.48,46.127 L16.492,42.62 C16.217,42.481 15.993,42.089 15.993,41.743 C15.993,41.397 16.217,41.229 16.492,41.367 L23.48,44.875 C23.756,45.013 23.979,45.406 23.979,45.751 C23.979,46.097 23.757,46.266 23.48,46.127 L23.48,46.127 Z" id="Shape" fill="#1966C1"></path>
            </g>
        </g>
    </g>
</svg>