<?xml version="1.0" encoding="UTF-8" standalone="no"?>
<svg width="125px" height="125px" viewBox="0 0 125 125" version="1.1" xmlns="http://www.w3.org/2000/svg" xmlns:xlink="http://www.w3.org/1999/xlink">
    <!-- Generator: sketchtool 40.3 (33839) - http://www.bohemiancoding.com/sketch -->
    <title>12904513-A91A-4558-BB37-92368D77C04C</title>
    <desc>Created with sketchtool.</desc>
    <defs></defs>
    <g id="Page-1" stroke="none" stroke-width="1" fill="none" fill-rule="evenodd">
        <g id="Desktop" transform="translate(-149.000000, -677.000000)">
            <g id="100%" transform="translate(87.000000, 662.000000)">
                <rect id="Rectangle-14" x="0" y="0" width="250" height="220"></rect>
                <g id="Group-7" transform="translate(62.000000, 15.000000)">
                    <circle id="Oval-3" fill="#1966C1" cx="62.5" cy="62.5" r="62.5"></circle>
                    <path d="M42.625,76.35 L38.025,76.35 L38.025,45.95 L28.625,45.95 L28.625,50.9 L33.375,50.9 L33.375,76.35 L28.625,76.35 L28.625,81 L42.625,81 L42.625,76.35 Z M58.125,45.9 C51.325,45.9 45.825,51.55 45.825,58.55 L45.825,68.35 C45.975,75.2 51.325,81 58.125,81 C64.925,81 70.425,75.3 70.425,68.35 L70.425,58.55 C70.025,51.6 64.975,45.9 58.125,45.9 L58.125,45.9 Z M50.725,70.95 C50.475,70.1 50.325,69.25 50.325,68.35 L50.325,58.55 C50.325,54.1 53.825,50.5 58.125,50.5 C59.575,50.5 60.975,50.95 62.125,51.65 L50.725,70.95 Z M65.975,68.35 C65.975,72.8 62.475,76.4 58.125,76.4 C56.625,76.4 55.175,75.9 53.975,75.15 L65.525,55.85 C65.775,56.7 65.975,57.6 65.975,58.55 L65.975,68.35 Z M86.575,45.9 C79.775,45.9 74.275,51.55 74.275,58.55 L74.275,68.35 C74.425,75.2 79.775,81 86.575,81 C93.375,81 98.875,75.3 98.875,68.35 L98.875,58.55 C98.475,51.6 93.425,45.9 86.575,45.9 L86.575,45.9 Z M79.175,70.95 C78.925,70.1 78.775,69.25 78.775,68.35 L78.775,58.55 C78.775,54.1 82.275,50.5 86.575,50.5 C88.025,50.5 89.425,50.95 90.575,51.65 L79.175,70.95 Z M94.425,68.35 C94.425,72.8 90.925,76.4 86.575,76.4 C85.075,76.4 83.625,75.9 82.425,75.15 L93.975,55.85 C94.225,56.7 94.425,57.6 94.425,58.55 L94.425,68.35 Z" id="100" fill="#FFFFFF"></path>
                </g>
            </g>
        </g>
    </g>
</svg>