<?xml version="1.0" encoding="UTF-8" standalone="no"?>
<svg width="126px" height="125px" viewBox="0 0 126 125" version="1.1" xmlns="http://www.w3.org/2000/svg" xmlns:xlink="http://www.w3.org/1999/xlink">
    <!-- Generator: sketchtool 40 (33762) - http://www.bohemiancoding.com/sketch -->
    <title>27701E65-729E-4FD0-AD63-5A973AC637E6</title>
    <desc>Created with sketchtool.</desc>
    <defs></defs>
    <g id="Page-1" stroke="none" stroke-width="1" fill="none" fill-rule="evenodd">
        <g id="Desktop" transform="translate(-449.000000, -677.000000)" fill="#1966C1">
            <g id="GLOBAL" transform="translate(387.000000, 662.000000)">
                <g id="Group-8" transform="translate(62.000000, 15.000000)">
                    <g id="1477413271_vector_66_11">
                        <g id="Layer_1">
                            <path d="M70.704806,0.508125 C79.7636418,1.658125 88.218806,4.741875 95.6390149,9.32125 C94.2661791,10.3725 92.8908358,11.434375 91.5361791,12.509375 C90.2172537,13.63 88.8807761,14.74 87.5712537,15.881875 L83.874,19.303125 C83.015194,18.73625 81.9802388,18.404375 80.873194,18.404375 C80.3999104,18.404375 79.9460597,18.46875 79.5160299,18.578125 C79.3405075,18.275625 79.1725075,17.970625 79.0026269,17.660625 C78.0717313,15.780625 77.0725075,13.91375 76.104,12.03875 C75.2201194,10.12375 74.2691642,8.235625 73.355194,6.318125 L72.048806,3.4025 C71.6137612,2.43625 71.1530149,1.47375 70.704806,0.508125 L70.704806,0.508125 Z M67.8600896,1.21125 C67.5573134,1.834375 67.1235224,2.7575 66.5405373,3.91 C66.2534328,4.4875 65.9312239,5.126875 65.5789254,5.82 C65.2234925,6.51 64.7953433,7.24 64.3458806,8.02625 C63.4243881,9.58 62.4753134,11.41 61.2209552,13.249375 C60.0048358,15.11375 58.7385672,17.17875 57.1920896,19.21125 C56.434209,20.238125 55.6725672,21.310625 54.8620299,22.380625 C54.0251642,23.436875 53.1732537,24.509375 52.2843582,25.59 C51.841791,26.125 51.3935821,26.670625 50.9453731,27.21875 C50.4733433,27.74875 50.0038209,28.28625 49.5236418,28.82375 C48.5664179,29.89125 47.6123284,30.995625 46.6187463,32.07625 C45.5831642,33.119375 44.5419403,34.170625 43.4963284,35.21875 C42.9678806,35.745625 42.4607463,36.29375 41.9109851,36.794375 L41.3110746,37.350625 C41.5887761,38.000625 41.7467463,38.72 41.7467463,39.474375 C41.7467463,39.85375 41.7041194,40.22875 41.631403,40.584375 C41.9467164,40.734375 42.2563881,40.87875 42.5679403,41.03625 C44.193403,41.856875 45.8207463,42.79875 47.4907164,43.703125 C49.1851343,44.590625 50.8118507,45.61 52.4749254,46.631875 C53.3011343,47.1425 54.1354925,47.664375 54.9711045,48.18875 C55.5866866,48.579375 56.1928657,49.001875 56.797791,49.424375 C57.7136418,48.729375 58.851403,48.314375 60.0825672,48.314375 C60.4311045,48.314375 60.7696119,48.349375 61.1018507,48.410625 L61.6936119,47.39125 C62.2740896,46.420625 62.8012836,45.4175 63.4306567,44.47625 L67.2263284,38.85125 L68.1791642,37.4525 C68.4988657,36.981875 68.8549254,36.54875 69.192806,36.09375 C69.8760896,35.195 70.5731642,34.301875 71.2683582,33.41375 C72.6668955,31.640625 74.0152836,29.8325 75.5605075,28.174375 C75.8758209,27.810625 76.2005373,27.449375 76.5208657,27.085625 C75.8369552,26.181875 75.4294925,25.058125 75.4294925,23.833125 C75.4294925,22.15625 76.1898806,20.653125 77.3940896,19.658125 L76.9289552,18.66875 C76.0877015,16.7 75.2991045,14.710625 74.494209,12.73125 C73.7620299,10.7175 73.0919104,8.681875 72.4004776,6.668125 L71.5297612,3.595 C71.245791,2.570625 70.9843881,1.533125 70.7066866,0.50875 C69.920597,0.401875 69.1213433,0.31875 68.3233433,0.251875 C68.3214627,0.25125 68.1616119,0.585625 67.8600896,1.21125 L67.8600896,1.21125 Z M81.9865075,75.46625 C81.3558806,74.784375 80.7227463,74.0975 80.084597,73.404375 C79.7705373,73.05375 79.4326567,72.721875 79.0878806,72.39625 C78.7468657,72.07 78.4020896,71.738125 78.0585672,71.40625 C76.6857313,70.085625 75.2915821,68.745 73.8886567,67.394375 C73.2034925,66.699375 72.4669254,66.070625 71.7284776,65.43125 C70.9887761,64.791875 70.2578507,64.1525 69.5181493,63.505625 C68.7815821,62.86625 68.0349851,62.221875 67.2996716,61.576875 C66.9210448,61.25625 66.5674925,60.929375 66.178209,60.616875 L64.9921791,59.699375 C64.3690746,59.215625 63.7384478,58.739375 63.1159701,58.2575 C62.244,58.835 61.203403,59.175 60.0819403,59.175 C59.85,59.175 59.6180597,59.15625 59.3861194,59.126875 C58.6081791,60.718125 57.9010746,62.306875 57.1500896,63.893125 C56.6699104,64.8775 56.2542985,65.901875 55.8286567,66.92125 L54.5529851,69.98125 C54.1223284,71 53.7725373,72.04625 53.3713433,73.078125 L52.1972239,76.178125 L51.1265373,79.323125 C50.7805075,80.36625 50.386209,81.40375 50.096597,82.47125 L49.1525373,85.65125 L48.6629552,87.2375 L48.2404478,88.844375 C47.8085373,90.484375 47.3565672,92.120625 46.9691642,93.765625 C47.478806,94.00125 47.9376716,94.31125 48.3426269,94.680625 C48.5908657,94.514375 48.8284478,94.351875 49.0735522,94.18875 C50.3868358,93.37 51.7308358,92.538125 53.0936418,91.685 C55.8593731,90.045625 58.7460896,88.398125 61.7826269,86.913125 C62.5417612,86.53375 63.2983881,86.15375 64.0606567,85.76625 C64.8279403,85.410625 65.604,85.054375 66.3850746,84.693125 C67.9384478,83.9925 69.4955821,83.268125 71.1047463,82.6525 C72.702,82.031875 74.2754328,81.355625 75.8971343,80.775 C77.5207164,80.2025 79.1242388,79.61625 80.7327761,79.06875 C80.9716119,78.996875 81.204806,78.929375 81.4423881,78.8575 C81.4423881,78.815 81.4354925,78.77125 81.4354925,78.731875 C81.4354925,77.65125 81.7577015,76.648125 82.3024478,75.8025 C82.1983881,75.690625 82.086806,75.581875 81.9865075,75.46625 L81.9865075,75.46625 Z M3.10361194,71.23 C4.02510448,71.955 4.91964179,72.70875 5.85179104,73.423125 C7.73865672,74.800625 9.56032836,76.24 11.4515821,77.590625 L14.3057015,79.601875 C15.2616716,80.256875 16.1875522,80.963125 17.1811343,81.568125 L20.0916716,83.480625 C21.0601791,84.119375 22.0205373,84.764375 23.0316716,85.339375 C24.024,85.93625 25.0219701,86.521875 26.0092836,87.13125 L27.4924478,88.035625 L29.0057015,88.880625 L32.0441194,90.565625 C32.5525075,90.840625 33.0565075,91.138125 33.5692836,91.3975 L35.1201493,92.18125 C36.983194,93.1225 38.8167761,94.1125 40.7161791,94.97625 C41.6495821,93.986875 42.9503284,93.3475 44.4102985,93.275 C44.7174627,91.56625 45.094209,89.870625 45.4458806,88.16375 C45.8564776,85.94375 46.5096716,83.776875 47.0657015,81.586875 C47.3327463,80.4875 47.693194,79.420625 48.015403,78.335 L49.0077313,75.093125 C49.7348955,72.95875 50.4789851,70.821875 51.2895224,68.70875 L52.560806,65.56625 C52.9833134,64.515 53.4014328,63.466875 53.8928955,62.434375 C54.6426269,60.794375 55.3685373,59.11 56.1571343,57.505 C55.2180896,56.52625 54.6376119,55.204375 54.6376119,53.744375 C54.6376119,53.190625 54.7222388,52.653125 54.8789552,52.1475 C54.3047463,51.735625 53.7267761,51.32625 53.1419104,50.94375 C52.3238507,50.425 51.520209,49.90625 50.7153134,49.3925 C49.1111642,48.355 47.5496418,47.295625 45.9442388,46.38875 C44.342597,45.460625 42.8161791,44.500625 41.2364776,43.639375 C40.9230448,43.468125 40.6221493,43.305 40.310597,43.136875 C39.3182687,44.2225 37.8908955,44.905 36.3005373,44.905 C35.3000597,44.905 34.3691642,44.635 33.5617612,44.16375 C31.2517612,45.974375 28.9530448,47.76625 26.6392836,49.315 C24.3819403,50.9625 22.0706866,52.369375 19.8979701,53.725625 C17.6700896,55.00125 15.6139701,56.274375 13.6042388,57.245 C12.6106567,57.755625 11.6609552,58.24 10.7538806,58.705625 C9.85244776,59.17125 8.94850746,59.531875 8.13295522,59.911875 C6.48053731,60.66625 5.04689552,61.310625 3.82325373,61.7575 C1.40229851,62.704375 0.00501492537,63.201875 0.00501492537,63.201875 C0.0238208955,65.18125 0.139164179,67.13375 0.337253731,69.059375 C1.26877612,69.7725 2.18462687,70.508125 3.10361194,71.23 L3.10361194,71.23 Z M84.4789254,73.861875 C85.2054627,73.50625 86.016,73.300625 86.8835821,73.300625 C88.9227761,73.300625 90.6942985,74.418125 91.6289552,76.07625 C92.7165672,75.80875 93.7991642,75.551875 94.8585672,75.298125 C96.3718209,74.990625 97.8725373,74.755625 99.3193433,74.4875 C100.763015,74.23125 102.181612,73.995625 103.540657,73.765625 C104.910358,73.54875 106.253731,73.458125 107.53191,73.30875 C108.808836,73.169375 110.037493,73.04125 111.199075,72.936875 C112.366299,72.824375 113.467075,72.704375 114.503284,72.690625 C115.39406,72.655625 116.228418,72.63125 117.014507,72.613125 C117.020776,71.508125 117.354896,70.489375 117.923463,69.63875 C117.741045,69.51 117.565522,69.384375 117.389373,69.25625 L115.68994,68.015625 L114.055075,66.694375 L110.810418,64.00875 C110.277582,63.556875 109.71591,63.129375 109.201254,62.650625 L107.664179,61.20875 L104.596299,58.3175 C103.55006,57.37625 102.600358,56.338125 101.637493,55.31375 L98.7601791,52.224375 L98.0411642,51.45125 L97.3585075,50.64875 L96.0013433,49.030625 L93.3277612,45.7675 C92.8663881,45.23 92.4545373,44.6575 92.0439403,44.090625 L90.7927164,42.389375 C89.9614925,41.246875 89.1158507,40.12375 88.302806,38.97875 C87.5054328,37.818125 86.7763881,36.614375 86.0109851,35.429375 L83.7404776,31.869375 C83.2063881,30.96 82.7048955,30.02375 82.1977612,29.093125 C81.7721194,29.2025 81.3314328,29.264375 80.8725672,29.264375 C80.000597,29.264375 79.1775224,29.053125 78.4447164,28.689375 C78.1538507,29.058125 77.8642388,29.4325 77.5727463,29.799375 C76.146,31.500625 74.9148358,33.35375 73.6454328,35.164375 C73.0110448,36.07375 72.3741493,36.980625 71.7272239,37.87875 C71.4062687,38.33375 71.0671343,38.771875 70.7725075,39.2375 L69.8886269,40.644375 L66.3512239,46.26125 C65.6027463,47.545 64.8749552,48.841875 64.1553134,50.1475 C65.0097313,51.108125 65.5287761,52.359375 65.5287761,53.741875 C65.5287761,54.38375 65.4146866,54.99875 65.2078209,55.565625 C65.8315522,56.058125 66.4483881,56.5475 67.0727463,57.03125 L68.2518806,57.959375 C68.6405373,58.280625 69.0135224,58.630625 69.3959104,58.9625 C70.1575522,59.63125 70.9154328,60.3075 71.6720597,60.97625 C72.4299403,61.6475 73.1846866,62.31625 73.9413134,62.985 C74.6910448,63.65625 75.4627164,64.30125 76.1384776,65.025625 C77.5307463,66.44375 78.9111045,67.855 80.2789254,69.24375 C80.616806,69.58875 80.9546866,69.93875 81.2938209,70.28125 C81.6360896,70.62375 81.9727164,70.97125 82.2811343,71.3375 C82.9105075,72.061875 83.5405075,72.779375 84.1642388,73.498125 C84.2733134,73.62125 84.3698507,73.74125 84.4789254,73.861875 L84.4789254,73.861875 Z M118.594836,68.809375 C119.581522,67.814375 120.94997,67.199375 122.46009,67.199375 C123.434239,67.199375 124.35009,67.45375 125.137433,67.905625 C125.29603,66.126875 125.373761,64.321875 125.373761,62.500625 C125.373761,40.036875 113.487134,20.340625 95.6396418,9.321875 C94.4341791,10.565625 93.2186866,11.795625 91.9962985,13.015625 C90.8108955,14.27 89.6424179,15.543125 88.4501194,16.77375 L85.1459104,20.475 C85.8780896,21.398125 86.3181493,22.56125 86.3181493,23.834375 C86.3181493,25.31875 85.7213731,26.65875 84.7528657,27.643125 L86.3513731,30.285625 L88.6262687,33.74125 C89.3941791,34.88875 90.1138209,36.06 90.9187164,37.180625 C91.741791,38.285625 92.5291343,39.419375 93.3409254,40.5375 L94.5438806,42.22 C94.9438209,42.78125 95.3368657,43.34875 95.7769254,43.873125 L98.364,47.115 L99.6340299,48.74375 L100.270299,49.559375 L100.94606,50.343125 L103.664776,53.475 C104.579373,54.5075 105.432537,55.59875 106.406687,56.583125 L109.251403,59.605 L110.668119,61.124375 C111.133254,61.638125 111.647284,62.103125 112.136866,62.593125 L115.108836,65.505625 L116.580716,66.984375 L118.122806,68.383125 C118.28203,68.523125 118.437493,68.6675 118.594836,68.809375 L118.594836,68.809375 Z M26.2393433,113.354375 C31.1608657,116.86625 36.6089552,119.6825 42.4488358,121.6675 C42.387403,119.42875 42.2958806,117.185 42.3322388,114.94625 L42.4112239,111.57875 L42.4726567,109.89125 L42.5905075,108.20625 L42.8293433,104.83375 C42.8519104,104.496875 42.8939104,104.165625 42.9302687,103.833125 C42.1748955,103.57375 41.4909851,103.156875 40.9224179,102.619375 C40.5657313,102.849375 40.2140597,103.084375 39.8761791,103.32 C38.840597,104.041875 37.8482687,104.738125 36.9117313,105.400625 C36.4340597,105.726875 35.9726866,106.048125 35.5238507,106.360625 C35.0825373,106.686875 34.6531343,107 34.2431642,107.308125 C33.4113134,107.923125 32.6308657,108.498125 31.9174925,109.0275 C31.5526567,109.286875 31.2022388,109.54125 30.8712537,109.781875 C30.5502985,110.035625 30.2406269,110.276875 29.9497612,110.506875 C27.7488358,112.231875 26.399194,113.24 26.2518806,113.341875 C26.3860299,113.1975 27.5300597,111.9775 29.4896418,109.9825 C30.5133134,108.888125 31.8742388,107.70125 33.4006567,106.283125 C34.8951045,104.828125 36.7537612,103.37875 38.7202388,101.720625 C39.0449552,101.45 39.3859701,101.190625 39.718209,100.92375 C39.409791,100.24125 39.2348955,99.4875 39.2348955,98.690625 C39.2348955,98.47375 39.251194,98.2575 39.2762687,98.04625 C37.3342388,97.13375 35.457403,96.090625 33.5567463,95.10125 L31.9889552,94.26375 C31.4755522,93.9725 30.9790746,93.659375 30.4706866,93.3575 L27.4310149,91.530625 L25.9127463,90.613125 L24.4427463,89.62875 C23.4504179,88.981875 22.4819104,88.3075 21.5077612,87.649375 C20.5204478,86.996875 19.5763881,86.285625 18.6335821,85.579375 L15.8045373,83.455625 C14.8560896,82.763125 13.972209,81.97125 13.0657612,81.2225 L10.3539403,78.96 C9.45250746,78.205625 8.61689552,77.360625 7.7518209,76.571875 C6.89176119,75.764375 6.02731343,74.9675 5.17916418,74.15125 C3.53364179,72.488125 1.92886567,70.786875 0.336626866,69.059375 C2.25044776,87.306875 12.0314328,103.2175 26.2393433,113.354375 L26.2393433,113.354375 Z M9.43997015,29.50375 C3.45528358,39.08125 0,50.389375 0,62.5 C0,62.735 0,62.970625 0.00564179104,63.200625 C0.00564179104,63.200625 1.2581194,62.395625 3.47973134,61.074375 C4.5999403,60.435 5.90632836,59.560625 7.43149254,58.624375 C8.96167164,57.690625 10.644806,56.5625 12.4852836,55.36125 C12.9466567,55.05875 13.4124179,54.75125 13.8913433,54.438125 C14.3633731,54.111875 14.8328955,53.774375 15.3237313,53.435 C16.2972537,52.76625 17.3008657,52.07375 18.3439701,51.359375 C19.3551045,50.61625 20.3963284,49.850625 21.4532239,49.0675 C22.5395821,48.31875 23.5977313,47.486875 24.6803284,46.655 C25.7560299,45.815 26.8825075,44.98375 27.9425373,44.076875 C29.0194925,43.196875 30.1152537,42.30875 31.2166567,41.41 C30.9847164,40.805625 30.8530746,40.155625 30.8530746,39.47375 C30.8530746,39.080625 30.8957015,38.695 30.9803284,38.32625 C29.9572836,37.8125 28.966209,37.3125 27.9663582,36.903125 C25.2369851,35.7075 22.7564776,34.53875 20.4916119,33.685625 C19.3663881,33.23375 18.3063582,32.81125 17.3328358,32.418125 C16.3643284,32.003125 15.4440896,31.690625 14.6222687,31.39375 C11.5224179,30.294375 9.6838209,29.596875 9.46629851,29.510625 C9.69447761,29.55875 11.6189552,29.9575 14.8209851,30.70625 C16.5392239,31.05125 18.5809254,31.695625 20.9417015,32.3775 C22.1139403,32.733125 23.3933731,33.059375 24.6809552,33.54125 C25.9766866,34.006875 27.3363582,34.490625 28.7580896,34.99625 C29.8124776,35.351875 30.8668657,35.774375 31.9425672,36.22625 C32.9348955,34.899375 34.5152239,34.04125 36.301791,34.04125 C37.2188955,34.04125 38.0921194,34.27125 38.8487463,34.675 L39.4104179,34.169375 C39.9551642,33.685625 40.4510149,33.16125 40.9769552,32.660625 C42.0125373,31.639375 43.0481194,30.625625 44.0711642,29.625 C45.0678806,28.5925 46.0614627,27.57375 47.0425075,26.56 C47.525194,26.051875 48.0160299,25.551875 48.4949552,25.051875 C48.9607164,24.5325 49.4220896,24.019375 49.8753134,23.51375 C50.7754925,22.486875 51.6900896,21.491875 52.5802388,20.520625 C53.4440597,19.53125 54.2608657,18.528125 55.0789254,17.570625 C55.4788657,17.091875 55.8781791,16.615625 56.2699701,16.153125 C56.471194,15.915 56.6699104,15.6875 56.8654925,15.455 C57.0516716,15.221875 57.2384776,14.986875 57.4208955,14.756875 C58.1599701,13.82875 58.8670746,12.935625 59.5497313,12.071875 C60.9432537,10.365625 62.1117313,8.734375 63.1930746,7.30625 C63.7334328,6.589375 64.2349254,5.918125 64.703194,5.2975 C65.1570448,4.660625 65.5682687,4.0775 65.9362388,3.548125 C66.6815821,2.491875 67.284,1.670625 67.6908358,1.10875 C68.1020597,0.5475 68.3227164,0.25 68.3227164,0.25 C66.4621791,0.083125 64.5872239,0 62.6853134,0 C40.207791,0 20.5028955,11.789375 9.43997015,29.50375 L9.43997015,29.50375 Z M101.58797,111.50625 C99.2478806,111.563125 96.8965075,111.57875 94.5438806,111.57875 C93.3647463,111.586875 92.1956418,111.4825 91.023403,111.42875 L87.4941493,111.23625 C86.3137612,111.20375 85.1509254,111.00625 83.9774328,110.89125 L80.462597,110.4875 C79.2884776,110.3775 78.1256418,110.18 76.9640597,109.96875 L73.4705373,109.366875 L71.7297313,109.05125 L69.9989552,108.66625 C68.8480299,108.411875 67.6989851,108.1475 66.5480597,107.874375 L64.8172836,107.465 C64.2487164,107.32125 63.6851642,107.14375 63.116597,106.98875 L59.7045672,106.01 C57.4165075,105.41125 55.1898806,104.55 52.943194,103.776875 C51.5214627,103.314375 50.1605373,102.77625 48.8108955,102.22625 C47.8423881,103.355 46.4087463,104.08 44.8102388,104.116875 C44.5563582,105.539375 44.3325672,106.9575 44.0949851,108.38 L43.829194,110.025 L43.6160597,111.683125 L43.1747463,115.0025 C42.9039403,117.214375 42.7158806,119.4425 42.4500896,121.6675 C48.7958507,123.82875 55.6061194,125 62.6853134,125 C77.3802985,125 90.9005373,119.955625 101.58797,111.50625 L101.58797,111.50625 Z M101.592985,111.50625 C103.155761,110.270625 104.664627,108.960625 106.098896,107.585625 C114.402985,99.639375 120.505522,89.44125 123.433612,77.978125 C123.12206,78.031875 122.792328,78.06125 122.459463,78.06125 C119.760806,78.06125 117.52791,76.100625 117.099761,73.535625 C116.312418,73.645625 115.488716,73.7525 114.599821,73.861875 C113.565493,73.971875 112.487284,74.183125 111.350776,74.399375 C110.218657,74.62125 109.019463,74.840625 107.770746,75.054375 C106.531433,75.298125 105.23006,75.474375 103.896716,75.785 C102.574657,76.10625 101.200567,76.4375 99.7844776,76.75875 C98.373403,77.09 96.9165672,77.3975 95.4421791,77.7775 C94.4228955,78.075 93.3810448,78.3825 92.3266567,78.69 L92.3266567,78.7325 C92.3266567,80.010625 91.8809552,81.1825 91.1381194,82.11 C93.2280896,84.728125 94.9231343,87.49125 96.5749254,89.955 C96.9942985,90.58375 97.4017612,91.195625 97.799194,91.8 C98.2003881,92.405 98.5175821,93.03625 98.8692537,93.63 C99.5481493,94.816875 100.188179,95.95125 100.802507,97.013125 C101.399284,98.075 101.986657,99.05875 102.463701,100.000625 C102.923821,100.955 103.347582,101.83 103.734985,102.61875 C104.505403,104.194375 105.079612,105.443125 105.484567,106.288125 C105.836239,107.029375 106.03997,107.465 106.083851,107.566875 C106.023045,107.475625 105.767284,107.06625 105.32597,106.365625 C104.831373,105.56875 104.085403,104.41875 103.171433,102.92625 C102.713194,102.183125 102.211075,101.364375 101.658806,100.470625 C101.084597,99.590625 100.412597,98.668125 99.7355821,97.66 C99.049791,96.664375 98.3257612,95.595 97.5553433,94.474375 C97.1610448,93.9175 96.786806,93.331875 96.3567761,92.765 C95.9286269,92.198125 95.4860597,91.618125 95.0391045,91.029375 C94.1426866,89.844375 93.2124179,88.614375 92.241403,87.341875 C91.7637313,86.7025 91.2779104,86.055 90.7156119,85.42875 C90.2266567,84.835625 89.7232836,84.23375 89.2161493,83.631875 C88.507791,83.96875 87.7160597,84.16125 86.8804478,84.16125 C84.9973433,84.16125 83.3386567,83.214375 82.3632537,81.765 C82.1269254,81.845 81.8974925,81.923125 81.6686866,82.003125 C80.1247164,82.58625 78.5650746,83.1425 77.0022985,83.72 C75.4345075,84.300625 73.891791,84.983125 72.3390448,85.608125 C70.7712537,86.218125 69.2623881,86.966875 67.7240597,87.635625 C66.961791,87.980625 66.2001493,88.32 65.4372537,88.6625 C64.6925373,89.02375 63.942806,89.393125 63.2049851,89.75375 C61.7161791,90.484375 60.2342687,91.19 58.8162985,91.98125 C57.3958209,92.765 55.9483881,93.4525 54.5805672,94.244375 C53.2121194,95.028125 51.8631045,95.795 50.5485672,96.555 C50.3153731,96.694375 50.0790448,96.838125 49.8483582,96.9775 C50.0238806,97.520625 50.1273134,98.095625 50.1273134,98.689375 C50.1273134,98.823125 50.1141493,98.956875 50.1072537,99.088125 C51.4525075,99.649375 52.7965075,100.1975 54.1461493,100.658125 L57.3876716,101.835 C58.4589851,102.2575 59.5685373,102.6075 60.666806,102.955625 L63.9716418,104.025625 C64.5232836,104.201875 65.0742985,104.38625 65.6309552,104.55 L67.3059403,105.009375 C68.4261493,105.30375 69.5419701,105.616875 70.6609254,105.9325 L72.3308955,106.40875 L74.0246866,106.8075 L77.419791,107.59125 C78.5519104,107.850625 79.6783881,108.139375 80.8224179,108.34 C83.1092239,108.7625 85.3841194,109.251875 87.6847164,109.61875 L94.607194,110.67 C96.9316119,110.929375 99.2560299,111.2 101.585463,111.506875 L101.591104,109.99875 L101.591104,111.50625 L101.592985,111.50625 Z" id="Shape"></path>
                        </g>
                    </g>
                </g>
            </g>
        </g>
    </g>
</svg>