<?xml version="1.0" encoding="UTF-8" standalone="no"?>
<svg width="313px" height="99px" viewBox="0 0 313 99" version="1.1" xmlns="http://www.w3.org/2000/svg" xmlns:xlink="http://www.w3.org/1999/xlink">
    <!-- Generator: sketchtool 40.3 (33839) - http://www.bohemiancoding.com/sketch -->
    <title>B082F764-06A2-46B4-B23A-F63855C3D5D9</title>
    <desc>Created with sketchtool.</desc>
    <defs></defs>
    <g id="Page-1" stroke="none" stroke-width="1" fill="none" fill-rule="evenodd">
        <g id="Desktop" transform="translate(-356.000000, -4387.000000)">
            <g id="Unknown" transform="translate(356.000000, 4387.000000)">
                <g id="Layer_1">
                    <path d="M40.8465,76.6071429 L40.8465,98.45 L46.011,98.45 L46.011,89.3357143 L54.69675,89.3357143 L54.69675,85.8785714 L46.011,85.8785714 L46.011,79.9857143 L55.088,79.9857143 L55.088,76.5285714 C54.3055,76.6071429 41.629,76.6071429 40.8465,76.6071429 L40.8465,76.6071429 Z" id="Shape" fill="#4A4A4A"></path>
                    <rect id="Rectangle-path" fill="#4A4A4A" x="59.6265" y="81.6357143" width="4.46025" height="16.8142857"></rect>
                    <polygon id="Shape" fill="#4A4A4A" points="69.25125 81.6357143 74.9635 81.6357143 80.5975 93.0285714 80.5975 93.0285714 80.5975 81.6357143 84.6665 81.6357143 84.6665 98.45 79.11075 98.45 73.242 86.9 73.16375 86.9 73.32025 98.45 69.25125 98.45"></polygon>
                    <path d="M97.4995,85.0928571 L97.4995,85.0928571 L95.3085,91.6928571 L99.534,91.6928571 L97.4995,85.0928571 L97.4995,85.0928571 Z M94.76075,81.6357143 L100.23825,81.6357143 L106.733,98.45 L101.80325,98.45 L100.55125,94.8357143 L94.29125,94.8357143 L92.961,98.45 L88.4225,98.45 L94.76075,81.6357143 L94.76075,81.6357143 Z" id="Shape" fill="#4A4A4A"></path>
                    <polygon id="Shape" fill="#4A4A4A" points="110.489 81.6357143 116.123 81.6357143 121.83525 93.0285714 121.83525 93.0285714 121.757 81.6357143 125.826 81.6357143 125.826 98.45 120.3485 98.45 114.47975 86.9 114.4015 86.9 114.558 98.45 110.489 98.45"></polygon>
                    <path d="M130.9905,94.2857143 C132.16425,94.9142857 133.72925,95.3857143 135.60725,95.3857143 C137.01575,95.3857143 138.346,95.0714286 138.346,93.7357143 C138.346,90.5928571 130.44275,92.5571429 130.44275,86.4285714 C130.44275,82.4214286 134.35525,81.2428571 137.72,81.2428571 C139.36325,81.2428571 140.92825,81.4785714 142.02375,81.8714286 L141.71075,85.3285714 C140.537,84.7785714 139.285,84.5428571 137.95475,84.5428571 C136.85925,84.5428571 134.98125,84.6214286 134.98125,86.1142857 C134.98125,88.8642857 142.8845,86.9785714 142.8845,93.1071429 C142.8845,97.4285714 139.20675,98.6857143 135.529,98.6857143 C133.964,98.6857143 132.00775,98.45 130.521,97.9785714 L130.9905,94.2857143 L130.9905,94.2857143 Z" id="Shape" fill="#4A4A4A"></path>
                    <polygon id="Shape" fill="#4A4A4A" points="150.47475 84.9357143 146.3275 84.9357143 146.3275 81.6357143 159.08225 81.6357143 159.08225 84.9357143 154.935 84.9357143 154.935 98.45 150.47475 98.45"></polygon>
                    <rect id="Rectangle-path" fill="#4A4A4A" x="163.30775" y="81.6357143" width="4.46025" height="16.8142857"></rect>
                    <polygon id="Shape" fill="#4A4A4A" points="173.01075 81.6357143 177.471 81.6357143 177.471 95.0714286 184.357 95.0714286 184.357 98.45 173.01075 98.45"></polygon>
                    <path d="M188.50425,94.2857143 C189.678,94.9142857 191.243,95.3857143 193.121,95.3857143 C194.5295,95.3857143 195.85975,95.0714286 195.85975,93.7357143 C195.85975,90.5928571 187.9565,92.5571429 187.9565,86.4285714 C187.9565,82.4214286 191.869,81.2428571 195.23375,81.2428571 C196.79875,81.2428571 198.442,81.4785714 199.5375,81.8714286 L199.2245,85.3285714 C198.05075,84.7785714 196.79875,84.5428571 195.4685,84.5428571 C194.373,84.5428571 192.495,84.6214286 192.495,86.1142857 C192.495,88.8642857 200.39825,86.9785714 200.39825,93.1071429 C200.39825,97.4285714 196.7205,98.6857143 193.04275,98.6857143 C191.47775,98.6857143 189.5215,98.45 188.03475,97.9785714 L188.50425,94.2857143 L188.50425,94.2857143 Z" id="Shape" fill="#4A4A4A"></path>
                    <polygon id="Shape" fill="#4A4A4A" points="209.00575 92.0857143 202.824 81.6357143 207.9885 81.6357143 211.275 88.3142857 214.48325 81.6357143 219.64775 81.6357143 213.466 92.0857143 213.466 98.45 209.00575 98.45"></polygon>
                    <polygon id="Shape" fill="#4A4A4A" points="223.0125 81.6357143 228.72475 81.6357143 234.35875 93.0285714 234.437 93.0285714 234.35875 81.6357143 238.42775 81.6357143 238.42775 98.45 232.872 98.45 227.0815 86.9 227.00325 86.9 227.15975 98.45 223.0125 98.45"></polygon>
                    <polygon id="Shape" fill="#4A4A4A" points="243.3575 81.6357143 255.17325 81.6357143 255.17325 84.7785714 247.81775 84.7785714 247.81775 88.2357143 254.782 88.2357143 254.782 91.4571429 247.81775 91.4571429 247.81775 95.2285714 255.48625 95.2285714 255.48625 98.45 243.3575 98.45"></polygon>
                    <polygon id="Shape" fill="#4A4A4A" points="263.546 84.9357143 259.477 84.9357143 259.477 81.6357143 272.1535 81.6357143 272.1535 84.9357143 268.00625 84.9357143 268.00625 98.45 263.546 98.45"></polygon>
                    <path d="M134.66825,45.1 C86.15325,46.2785714 40.064,51.3857143 0,59.7928571 L0,62.7 C39.125,54.5285714 85.136,49.2642857 134.66825,48.0071429 L134.66825,45.1 L134.66825,45.1 Z" id="Shape" fill="#4A4A4A"></path>
                    <path d="M178.33175,45.1 C226.84675,46.2785714 272.936,51.3857143 313,59.7928571 L313,62.7 C273.875,54.5285714 227.864,49.2642857 178.33175,48.0071429 L178.33175,45.1 L178.33175,45.1 Z" id="Shape" fill="#4A4A4A"></path>
                    <rect id="Rectangle-path" fill="#F89838" x="141.3195" y="39.6785714" width="30.43925" height="3.14285714"></rect>
                    <path d="M151.88325,33.55 C151.88325,35.2 150.553,36.4571429 148.988,36.4571429 C147.34475,36.4571429 146.09275,35.1214286 146.09275,33.55 C146.09275,31.9 147.423,30.6428571 148.988,30.6428571 C150.553,30.6428571 151.88325,31.9 151.88325,33.55 L151.88325,33.55 Z" id="Shape" fill="#F89838"></path>
                    <path d="M167.06375,33.55 C167.06375,35.2 165.7335,36.4571429 164.1685,36.4571429 C162.52525,36.4571429 161.27325,35.1214286 161.27325,33.55 C161.27325,31.9 162.6035,30.6428571 164.1685,30.6428571 C165.7335,30.6428571 167.06375,31.9 167.06375,33.55 L167.06375,33.55 Z" id="Shape" fill="#FFD629"></path>
                    <path d="M167.06375,33.55 C167.06375,35.2 165.7335,36.4571429 164.1685,36.4571429 C162.52525,36.4571429 161.27325,35.1214286 161.27325,33.55 C161.27325,31.9 162.6035,30.6428571 164.1685,30.6428571 C165.7335,30.6428571 167.06375,31.9 167.06375,33.55 L167.06375,33.55 Z" id="Shape" fill="#F89838"></path>
                    <path d="M174.654,33.55 C174.654,35.2 173.32375,36.4571429 171.75875,36.4571429 C170.1155,36.4571429 168.8635,35.1214286 168.8635,33.55 C168.8635,31.9 170.19375,30.6428571 171.75875,30.6428571 C173.32375,30.6428571 174.654,31.9 174.654,33.55 L174.654,33.55 Z" id="Shape" fill="#F89838"></path>
                    <path d="M138.42425,33.55 C138.42425,35.2 139.7545,36.4571429 141.3195,36.4571429 C142.96275,36.4571429 144.21475,35.1214286 144.21475,33.55 C144.21475,31.9 142.8845,30.6428571 141.3195,30.6428571 C139.67625,30.6428571 138.42425,31.9 138.42425,33.55 L138.42425,33.55 Z" id="Shape" fill="#F89838"></path>
                    <path d="M160.33425,4.95 L160.33425,2.98571429 L157.51725,2.98571429 L157.51725,0.235714286 L155.561,0.235714286 L155.561,2.98571429 L152.744,2.98571429 L152.744,4.95 L155.561,4.95 L155.561,7.93571429 C153.996,8.32857143 152.82225,9.82142857 152.82225,11.4714286 C152.82225,13.5142857 154.4655,15.1642857 156.5,15.1642857 C158.5345,15.1642857 160.17775,13.5142857 160.17775,11.4714286 C160.17775,9.74285714 159.004,8.32857143 157.439,7.93571429 L157.439,4.95 L160.33425,4.95 L160.33425,4.95 Z" id="Shape" fill="#F89838"></path>
                    <rect id="Rectangle-path" fill="#F89838" x="141.3195" y="44.7857143" width="30.43925" height="3.14285714"></rect>
                    <path d="M159.4735,33.55 C159.4735,35.2 158.14325,36.4571429 156.57825,36.4571429 C154.935,36.4571429 153.683,35.1214286 153.683,33.55 C153.683,31.9 155.01325,30.6428571 156.57825,30.6428571 C158.14325,30.6428571 159.4735,31.9 159.4735,33.55 L159.4735,33.55 Z" id="Shape" fill="#F89838"></path>
                    <path d="M179.27075,19.7214286 C177.23625,17.7571429 173.63675,17.7571429 169.959,18.8571429 C169.88075,18.3857143 169.72425,17.9142857 169.56775,17.5214286 C169.09825,16.5 167.9245,15.2428571 165.34225,15.0071429 C162.52525,14.7714286 158.8475,16.3428571 156.57825,18.4642857 C154.309,16.3428571 150.63125,14.7714286 147.81425,15.0071429 C145.232,15.2428571 144.1365,16.5 143.58875,17.5214286 C143.43225,17.9142857 143.27575,18.3857143 143.1975,18.8571429 C139.51975,17.7571429 135.92025,17.7571429 133.88575,19.7214286 C132.94675,20.5857143 132.47725,21.7642857 132.47725,22.9428571 C132.47725,25.5357143 134.82475,28.2857143 137.72,31.0357143 C137.8765,30.8 138.033,30.5642857 138.26775,30.4071429 C138.972,29.7 139.83275,29.3071429 140.77175,29.15 C138.346,26.8714286 135.92025,24.3571429 135.92025,22.8642857 C135.92025,22.6285714 135.9985,22.4714286 136.23325,22.1571429 C137.32875,21.0571429 140.30225,21.3714286 143.58875,22.55 C144.1365,24.5142857 145.232,26.7928571 146.9535,29.5428571 C147.5795,29.2285714 148.28375,29.0714286 148.988,29.0714286 C149.69225,29.0714286 150.3965,29.2285714 150.94425,29.5428571 C150.553,28.8357143 150.31825,28.4428571 150.31825,28.4428571 C147.18825,23.4142857 146.6405,20.9 146.6405,19.7214286 C146.6405,19.25 146.71875,19.0142857 146.797,18.9357143 C146.9535,18.6214286 147.423,18.3857143 148.2055,18.3071429 C150.31825,18.15 153.683,19.8 154.935,21.5285714 L154.935,29.3071429 C155.48275,29.0714286 156.0305,28.9928571 156.6565,28.9928571 C157.2825,28.9928571 157.83025,29.15 158.378,29.3071429 L158.378,21.5285714 C159.63,19.7214286 162.99475,18.0714286 165.1075,18.3071429 C165.89,18.3857143 166.3595,18.5428571 166.516,18.9357143 C166.59425,19.0142857 166.6725,19.25 166.6725,19.7214286 C166.6725,20.8214286 166.12475,23.3357143 162.9165,28.4428571 C162.9165,28.4428571 162.68175,28.9142857 162.2905,29.5428571 C162.9165,29.2285714 163.5425,29.0714286 164.24675,29.0714286 C164.951,29.0714286 165.65525,29.2285714 166.28125,29.5428571 C167.9245,26.7928571 169.02,24.5142857 169.646,22.55 C172.85425,21.3714286 175.82775,21.1357143 177.0015,22.1571429 C177.23625,22.3928571 177.3145,22.6285714 177.3145,22.8642857 C177.3145,24.3571429 174.88875,26.8714286 172.463,29.15 C173.402,29.3071429 174.26275,29.7 174.967,30.4071429 C175.20175,30.6428571 175.35825,30.8 175.51475,31.0357143 C178.41,28.2857143 180.7575,25.5357143 180.7575,22.9428571 C180.67925,21.6857143 180.20975,20.5857143 179.27075,19.7214286 L179.27075,19.7214286 Z" id="Shape" fill="#F89838"></path>
                </g>
            </g>
        </g>
    </g>
</svg>