<?xml version="1.0" encoding="UTF-8" standalone="no"?>
<svg width="73px" height="122px" viewBox="0 0 73 122" version="1.1" xmlns="http://www.w3.org/2000/svg" xmlns:xlink="http://www.w3.org/1999/xlink">
    <!-- Generator: sketchtool 40.3 (33839) - http://www.bohemiancoding.com/sketch -->
    <title>ED50A1CB-0894-45C4-88C3-EAA93D24720C</title>
    <desc>Created with sketchtool.</desc>
    <defs></defs>
    <g id="Page-1" stroke="none" stroke-width="1" fill="none" fill-rule="evenodd">
        <g id="Desktop" transform="translate(-147.000000, -1145.000000)">
            <g id="Group-2" transform="translate(43.000000, 1115.000000)">
                <rect id="Rectangle-24" x="0" y="0" width="280" height="300"></rect>
                <g id="icon" transform="translate(104.000000, 30.000000)" fill="#1966C1">
                    <g id="Capa_1">
                        <g id="Group">
                            <path d="M56.6850794,0.0591515152 L7.73811036,5.80424242 C3.05783371,6.35878788 -0.276770975,10.5992121 0.27037037,15.2721818 L6.10408012,64.9668485 L13.0579509,69.3699394 L7.29817914,20.3481212 L60.4928874,14.1076364 L65.6426704,57.9721818 L72.2860015,59.8021818 L66.1491459,7.53812121 C65.5946107,2.86515152 61.365356,-0.49169697 56.6850794,0.0591515152 L56.6850794,0.0591515152 Z M44.5740317,10.2036364 L21.8750597,12.8654545 L21.5867014,10.3958788 L44.2819766,7.7229697 L44.5740317,10.2036364 L44.5740317,10.2036364 Z M52.2377075,10.3515152 C51.0399116,10.492 49.9567196,9.63060606 49.8199342,8.43278788 C49.6683613,7.23866667 50.5334361,6.15545455 51.7275351,6.0149697 C52.9253311,5.87448485 54.0085231,6.72848485 54.1527022,7.92260606 C54.2857906,9.12412121 53.4355034,10.2110303 52.2377075,10.3515152 L52.2377075,10.3515152 Z" id="Shape"></path>
                            <path d="M65.8977566,68.1203636 L65.8977566,99.2710303 L12.3518428,99.2710303 L12.3518428,71.4661212 L10.0893394,71.4661212 L5.94511338,62.9298182 L5.94511338,112.975697 C5.94511338,117.674545 9.76401209,121.500909 14.4812577,121.500909 L63.753554,121.500909 C68.4671028,121.500909 72.2823046,117.678242 72.2823046,112.975697 L72.2823046,65.5213939 L69.84235,68.1240606 L65.8977566,68.1203636 L65.8977566,68.1203636 L65.8977566,68.1203636 Z M49.5204853,112.406364 L28.7180234,112.406364 L28.7180234,106.003212 L49.5204853,106.003212 C49.5204853,106.003212 49.5204853,112.406364 49.5204853,112.406364 L49.5204853,112.406364 Z" id="Shape"></path>
                            <polygon id="Shape" points="16.5034626 72.3386061 29.7827309 66.4789091 55.3061353 67.7802424 66.2526591 63.1294545 65.6389735 57.9758788 54.9142638 64.4603636 32.466681 61.8724848 13.0579509 69.3736364 13.4498224 72.7009091"></polygon>
                        </g>
                    </g>
                </g>
            </g>
        </g>
    </g>
</svg>