<?xml version="1.0" encoding="UTF-8" standalone="no"?>
<svg width="90px" height="80px" viewBox="0 0 90 80" version="1.1" xmlns="http://www.w3.org/2000/svg" xmlns:xlink="http://www.w3.org/1999/xlink">
    <!-- Generator: sketchtool 40 (33762) - http://www.bohemiancoding.com/sketch -->
    <title>6821E382-E7DD-4410-B4C4-21794F4D4FEB</title>
    <desc>Created with sketchtool.</desc>
    <defs></defs>
    <g id="Page-1" stroke="none" stroke-width="1" fill="none" fill-rule="evenodd">
        <g id="Desktop" transform="translate(-682.000000, -1728.000000)">
            <g id="1477325593_vector_65_05" transform="translate(682.000000, 1728.000000)">
                <g id="Layer_1">
                    <path d="M90,18.3429213 L90,33.9024719 C89.4096,36.3923596 88.10145,38.6791011 86.16915,40.5339326 C83.45115,43.1393258 79.82865,44.5752809 75.9744,44.5752809 L51.741,44.5752809 L51.741,39.8382022 C51.741,37.8364045 50.10075,36.1986517 48.09645,36.1986517 L41.9031,36.1986517 C39.8997,36.1986517 38.2599,37.8368539 38.2599,39.8382022 L38.2599,44.5752809 L14.02515,44.5752809 C10.1709,44.5752809 6.5493,43.1393258 3.8304,40.5339326 C1.8963,38.6817978 0.5904,36.3932584 0,33.9042697 L0,18.3429213 C0,14.988764 2.7495,12.2426966 6.1083,12.2426966 L83.8926,12.2426966 C87.25095,12.2426966 90,14.988764 90,18.3429213 L90,18.3429213 Z" id="Shape" fill="#4A4A4A"></path>
                    <path d="M88.2855,42.7339326 C84.9933,45.8876404 80.6238,47.6260674 75.9744,47.6260674 L51.741,47.6260674 L51.741,52.3640449 C51.741,54.3631461 50.10075,56.0022472 48.09645,56.0022472 L41.9031,56.0022472 C39.8997,56.0022472 38.2599,54.3635955 38.2599,52.3640449 L38.2599,47.6260674 L14.02515,47.6260674 C9.37665,47.6260674 5.00625,45.8876404 1.7145,42.7339326 C1.089,42.1339326 0.5166,41.4970787 0,40.828764 L0,73.8575281 C0,77.214382 2.7495,79.9582022 6.1083,79.9582022 L83.8926,79.9582022 C87.25095,79.9582022 90,77.214382 90,73.8575281 L90,40.828764 C89.4825,41.4970787 88.91235,42.1339326 88.2855,42.7339326 L88.2855,42.7339326 Z" id="Path" fill="#4A4A4A"></path>
                    <path d="M59.0832,1.82876404 C57.8898,0.636853933 56.32605,0.0413483146 54.76365,0.0413483146 L35.23815,0.0413483146 C33.67485,0.0413483146 32.1102,0.636853933 30.9177,1.82876404 C29.7261,3.01977528 29.1294,4.5811236 29.1294,6.14202247 L29.1294,9.19235955 L34.32015,9.19235955 L34.32015,6.14202247 C34.32015,5.96898876 34.3674,5.71595506 34.59015,5.49483146 C34.81065,5.27370787 35.06355,5.22561798 35.23815,5.22561798 L54.7641,5.22561798 C54.936,5.22561798 55.1898,5.27370787 55.41075,5.49483146 C55.63305,5.71595506 55.6803,5.96898876 55.6803,6.14202247 L55.6803,9.19235955 L60.87105,9.19235955 L60.87105,6.14202247 C60.8706,4.5811236 60.2748,3.02022472 59.0832,1.82876404 L59.0832,1.82876404 Z" id="Path" fill="#4A4A4A"></path>
                    <path d="M48.0969,52.9514607 C48.41775,52.9514607 48.6855,52.6835955 48.6855,52.3635955 L48.6855,47.625618 L48.6855,44.5752809 L48.6855,39.8382022 C48.6855,39.5182022 48.41775,39.2485393 48.0969,39.2485393 L41.9031,39.2485393 C41.5836,39.2485393 41.3127,39.5182022 41.3127,39.8382022 L41.3127,44.5752809 L41.3127,47.625618 L41.3127,52.3635955 C41.3127,52.6835955 41.5836,52.9514607 41.9031,52.9514607 L48.0969,52.9514607 L48.0969,52.9514607 Z" id="Path" fill="#1966C1"></path>
                </g>
            </g>
        </g>
    </g>
</svg>