<?xml version="1.0" encoding="UTF-8" standalone="no"?>
<svg width="72px" height="115px" viewBox="0 0 72 115" version="1.1" xmlns="http://www.w3.org/2000/svg" xmlns:xlink="http://www.w3.org/1999/xlink">
    <!-- Generator: sketchtool 40 (33762) - http://www.bohemiancoding.com/sketch -->
    <title>0D367277-7996-4B5F-980C-286D805EF592</title>
    <desc>Created with sketchtool.</desc>
    <defs></defs>
    <g id="Page-1" stroke="none" stroke-width="1" fill="none" fill-rule="evenodd">
        <g id="Desktop" transform="translate(-261.000000, -1723.000000)">
            <g id="tie" transform="translate(261.000000, 1723.000000)">
                <g id="Group">
                    <g id="neck-tie">
                        <g id="Group">
                            <g id="_x32_5" transform="translate(0.133781, 0.646941)">
                                <path d="M53.1997948,93.616229 L44.6202508,43.4007796 L44.3545628,43.4007796 C44.4979051,43.213548 44.651342,43.0299324 44.758344,42.825424 L46.5858579,39.2487369 C47.351831,37.7496783 47.1208681,35.5161573 46.0871881,34.2935266 L37.8201708,24.4686862 C36.7828568,23.2444483 35.0869755,23.2444483 34.0480463,24.4686862 L25.7842593,34.2935266 C24.747349,35.5161573 24.5212315,37.7496783 25.2855894,39.2487369 L27.1094693,42.825424 C27.2128373,43.0295306 27.3682931,43.213548 27.5100203,43.4007796 L27.2511966,43.4007796 L18.6700374,93.6166307 C18.3785074,95.2117159 19.0152704,97.4456386 20.0622752,98.5770642 L34.0064569,113.490909 C34.5362179,114.062649 35.2351632,114.347514 35.9353199,114.347514 C36.6326501,114.347514 37.3348257,114.062649 37.8609527,113.490909 L51.7982701,98.5770642 C52.8565808,97.4452368 53.4897098,95.2113141 53.1997948,93.616229 L53.1997948,93.616229 Z" id="Shape" fill="#4A4A4A"></path>
                                <g id="Group" transform="translate(21.400406, 43.392744)">
                                    <polygon id="Shape" fill="#FFFFFF" points="20.1313218 0.0578569919 20.3901456 1.5721834 6.28041356 15.615361 8.94092822 0.0578569919"></polygon>
                                    <polygon id="Shape" fill="#1966C1" points="5.24148441 21.685122 21.1250274 5.87810966 22.1482091 11.8397905 3.80402316 30.0916626"></polygon>
                                    <polygon id="Shape" fill="#FFFFFF" points="2.76711291 36.1630306 22.8818797 16.1445114 23.9014273 22.1094066 1.32965166 44.5679641"></polygon>
                                    <path d="M0.901643531,53.1287899 C0.530568563,52.7253981 0.140919656,51.4613836 0.268514531,50.7662961 L0.289107375,50.6393322 L24.636713,26.4121186 L25.6566644,32.3770137 L2.77761122,55.1377133 L0.901643531,53.1287899 L0.901643531,53.1287899 Z" id="Shape" fill="#1966C1"></path>
                                    <polygon id="Shape" fill="#FFFFFF" points="5.21725753 57.7477065 26.3931614 36.6765114 27.4094788 42.6430137 8.59609903 61.3637685"></polygon>
                                    <path d="M28.1653573,53.1235667 L14.5316834,67.7163858 L11.0357453,63.9701456 L28.1443607,46.9457257 L28.8017166,50.7642872 C28.9297152,51.4617854 28.5396625,52.7217821 28.1653573,53.1235667 L28.1653573,53.1235667 Z" id="Shape" fill="#1966C1"></path>
                                </g>
                                <path d="M43.6091826,38.1791861 L42.2924519,40.7546258 C42.2112919,40.9161432 42.0905613,41.058375 41.9799252,41.2062318 L29.8907146,41.2062318 C29.7804823,41.058375 29.6561177,40.9161432 29.5749577,40.7546258 L28.258227,38.1791861 C27.7094883,37.0955729 27.8734235,35.4904431 28.6155734,34.6045079 L34.5753847,27.5254639 C35.3243989,26.642743 36.544222,26.642743 37.2912173,27.5254639 L43.2514324,34.6045079 C43.9972163,35.4904431 44.1615553,37.0955729 43.6091826,38.1791861 L43.6091826,38.1791861 Z" id="Shape" fill="#1966C1"></path>
                                <path d="M71.1159727,7.08748151 L66.3965774,0.930533286 C66.0565936,0.485757661 65.5668069,0.21093695 65.0402762,0.111696137 L65.0402762,0.0634819772 L7.25716041,0.0634819772 C6.58082681,0.0634819772 5.90772347,0.365624046 5.47123594,0.930533286 L0.755474719,7.08748151 C0.0411856875,8.02163086 -0.0314949375,9.59421604 0.595173563,10.5902402 L18.0215648,38.2583377 C18.3562994,38.7870863 18.825897,39.0550767 19.3120496,39.0550767 C19.7416729,39.0550767 20.1729113,38.847354 20.5286425,38.4250783 L34.7211497,21.3733371 C35.471779,20.468518 35.2941153,19.1824053 34.334731,18.5078089 L12.0007825,2.89164424 L59.8710686,2.89164424 L37.535505,18.5078089 C36.5745056,19.1824053 36.398457,20.468518 37.1507015,21.3733371 L51.3436124,38.4250783 C51.6957097,38.847354 52.1305821,39.0550767 52.5602053,39.0550767 C53.0467617,39.0550767 53.5159555,38.7870863 53.8506902,38.2583377 L71.2770814,10.5902402 C71.9013272,9.59421604 71.8306655,8.02163086 71.1159727,7.08748151 L71.1159727,7.08748151 Z" id="Shape" fill="#4A4A4A"></path>
                                <path d="M19.5050571,30.5263936 C20.8302671,30.5263936 21.9071517,31.5959443 21.9071517,32.9166105 C21.9071517,34.2352678 20.8302671,35.3048186 19.5050571,35.3048186 C18.1814621,35.3048186 17.1029624,34.2352678 17.1029624,32.9166105 C17.1029624,31.5963461 18.1814621,30.5263936 19.5050571,30.5263936 L19.5050571,30.5263936 Z" id="Shape" fill="#FFFFFF"></path>
                                <path d="M52.3627563,35.3048186 C51.0375462,35.3048186 49.9606616,34.2352678 49.9606616,32.9166105 C49.9606616,31.5963461 51.0375462,30.5263936 52.3627563,30.5263936 C53.6863512,30.5263936 54.7648509,31.5959443 54.7648509,32.9166105 C54.7648509,34.2352678 53.6863512,35.3048186 52.3627563,35.3048186 L52.3627563,35.3048186 Z" id="Shape" fill="#FFFFFF"></path>
                            </g>
                        </g>
                    </g>
                </g>
            </g>
        </g>
    </g>
</svg>