<?xml version="1.0" encoding="UTF-8" standalone="no"?>
<svg width="369px" height="380px" viewBox="0 0 369 380" version="1.1" xmlns="http://www.w3.org/2000/svg" xmlns:xlink="http://www.w3.org/1999/xlink">
    <!-- Generator: Sketch 3.7 (28169) - http://www.bohemiancoding.com/sketch -->
    <title>1477413279_medical_icon_6</title>
    <desc>Created with Sketch.</desc>
    <defs>
        <circle id="path-1" cx="56.8" cy="57.4" r="56.6"></circle>
        <ellipse id="path-3" cx="116.007539" cy="109.107213" rx="108.002863" ry="100.502664"></ellipse>
        <circle id="path-5" cx="168" cy="168" r="167.3"></circle>
    </defs>
    <g id="Page-1" stroke="none" stroke-width="1" fill="none" fill-rule="evenodd">
        <g id="1477413279_medical_icon_6">
            <g id="Layer_9">
                <g id="Group">
                    <circle id="Oval" fill="#105DC4" cx="168" cy="212" r="167.3"></circle>
                    <circle id="Oval" fill="#FFFFFF" cx="271.6" cy="97.2" r="96.7"></circle>
                    <path d="M354.7,146.8 C363.4,132.3 368.3,115.4 368.3,97.3 C368.3,66.3 353.6,38.7 330.9,21 C345.6,37.8 354.6,59.8 354.6,83.9 C354.6,136.6 311.9,179.3 259.2,179.3 C233,179.3 209.2,168.7 192,151.6 C209.4,177.1 238.6,193.9 271.8,193.9 C291.5,193.9 309.7,188 325,177.9 C330.8,179.1 346.2,182.2 351.1,183 C357.2,183.9 362.8,180.9 360.7,171 C359.1,164.1 356.3,153 354.7,146.8 L354.7,146.8 Z" id="Shape" fill="#E8E8E8"></path>
                    <g id="Clipped" transform="translate(22.000000, 109.000000)">
                        <mask id="mask-2" fill="white">
                            <use xlink:href="#path-1"></use>
                        </mask>
                        <g id="SVGID_1_"></g>
                        <circle id="Oval" fill="#FFFFFF" mask="url(#mask-2)" cx="65.9" cy="68" r="56.6"></circle>
                    </g>
                    <path d="M125.9,135.2 C131.8,144.2 135.3,154.9 135.3,166.4 C135.3,197.6 110,223 78.7,223 C64,223 50.7,217.4 40.6,208.3 C50.7,223.6 68.1,233.6 87.8,233.6 C119,233.6 144.4,208.3 144.4,177 C144.4,160.4 137.3,145.5 125.9,135.2 L125.9,135.2 Z" id="Shape" fill="#E8E8E8"></path>
                    <g id="Clipped" transform="translate(36.000000, 161.000000)">
                        <mask id="mask-4" fill="white">
                            <use xlink:href="#path-3"></use>
                        </mask>
                        <g id="SVGID_3_" transform="translate(116.007539, 109.107213) rotate(-4.458743) translate(-116.007539, -109.107213) "></g>
                        <circle id="Oval" fill="#FFFFFF" mask="url(#mask-4)" cx="132" cy="168.2" r="81.2"></circle>
                    </g>
                    <g id="Clipped" transform="translate(0.000000, 44.000000)">
                        <mask id="mask-6" fill="white">
                            <use xlink:href="#path-5"></use>
                        </mask>
                        <g id="SVGID_5_"></g>
                        <path d="M159.8,326 C134.2,328 110,321.5 90.5,309 C100.8,342.1 131.6,366.1 168,366.1 C212.8,366.1 249.2,329.8 249.2,284.9 C249.2,280.1 248.8,275.4 248,270.9 C231.2,301.1 198.7,323 159.8,326 L159.8,326 Z" id="Shape" fill="#E8E8E8" mask="url(#mask-6)"></path>
                    </g>
                    <path d="M249.5,50.2 L256.7,66.4 C256.7,66.4 266.9,60.9 278,63 C289.1,65.1 286.7,74.2 285.9,78.5 C285.1,82.8 272.4,89.9 266.1,93.3 C259.8,96.7 260,105.3 259.3,109.1 C258.6,112.9 257.9,116.5 257.9,116.5 L275.7,119.9 C275.7,119.9 277.4,112 278.1,108.6 C278.8,105.2 292.5,103 301.7,93.6 C310.9,84.2 316,65.1 300.5,52.7 C284.8,40.3 260.2,44.4 249.5,50.2 L249.5,50.2 Z" id="Shape" fill="#105DC4"></path>
                    <circle id="Oval" fill="#105DC4" cx="261.6" cy="137.4" r="13.9"></circle>
                    <path d="M68.6,161.7 L74.9,167.2 C74.9,167.2 78.2,162.8 83.3,161.6 C88.4,160.4 89.2,164.7 89.7,166.7 C90.2,168.7 86.2,174.2 84.1,176.9 C82,179.6 83.8,183.2 84.3,185 C84.7,186.8 85.2,188.4 85.2,188.4 L93.5,186.3 C93.5,186.3 92.7,182.6 92.3,181 C91.9,179.4 97.4,175.8 99.4,169.9 C101.5,164.1 99.9,154.9 90.9,152.7 C81.7,150.5 72,157.1 68.6,161.7 L68.6,161.7 Z" id="Shape" fill="#105DC4"></path>
                    <circle id="Oval" fill="#105DC4" cx="90.9" cy="196.6" r="6.6"></circle>
                    <path d="M153.3,285.5 L159.2,298.4 C159.2,298.4 167.3,293.9 176.2,295.4 C185.1,297 183.3,304.3 182.7,307.7 C182.1,311.1 172,317 167,319.8 C162,322.6 162.3,329.4 161.7,332.5 C161.2,335.5 160.7,338.4 160.7,338.4 L175,340.9 C175,340.9 176.3,334.6 176.8,331.8 C177.3,329 188.3,327.1 195.5,319.5 C202.8,311.9 206.7,296.5 194.1,286.8 C181.5,277.1 161.8,280.7 153.3,285.5 L153.3,285.5 Z" id="Shape" fill="#105DC4"></path>
                    <circle id="Oval" fill="#105DC4" cx="164" cy="355.2" r="11.2"></circle>
                </g>
            </g>
        </g>
    </g>
</svg>