<?xml version="1.0" encoding="UTF-8" standalone="no"?>
<svg width="84px" height="93px" viewBox="0 0 84 93" version="1.1" xmlns="http://www.w3.org/2000/svg" xmlns:xlink="http://www.w3.org/1999/xlink">
    <!-- Generator: sketchtool 40 (33762) - http://www.bohemiancoding.com/sketch -->
    <title>B6214B0A-3CE8-4E6B-BD78-7D9BAC3E6B08</title>
    <desc>Created with sketchtool.</desc>
    <defs></defs>
    <g id="Page-1" stroke="none" stroke-width="1" fill="none" fill-rule="evenodd">
        <g id="Desktop" transform="translate(-210.000000, -1323.000000)" stroke-width="3" stroke="#1966C1">
            <g id="Group-9" transform="translate(210.000000, 1323.000000)">
                <g id="1477422059_10" transform="translate(2.000000, 2.000000)">
                    <g id="Layer_1">
                        <g id="Group">
                            <path d="M14.027907,80.1741667 L58.027907,80.1741667 C58.0465116,80.1370833 58.0651163,80.1 58.0837209,80.0629167 C63.9813953,69.6425 67.8139535,58.2022917 69.3767442,46.3541667 L70.9395349,34.4133333 L1.11627907,34.4133333 L2.67906977,46.3541667 C4.22325581,58.2022917 8.0744186,69.6610417 13.972093,80.0629167 C13.9906977,80.1185417 14.0093023,80.155625 14.027907,80.1741667 L14.027907,80.1741667 Z" id="Shape"></path>
                            <path d="M69.5627907,41 L2.4744186,41" id="Shape"></path>
                            <path d="M71.9813953,80.8416667 C71.9813953,85.3472917 68.8,89 64.8930233,89 L49.972093,89 L22.5674419,89 L7.1627907,89 C3.25581395,89 0.0744186047,85.3472917 0.0744186047,80.8416667 L0.0744186047,80.1927083 L71.9813953,80.1927083 L71.9813953,80.8416667 L71.9813953,80.8416667 Z" id="Shape"></path>
                            <g transform="translate(28.651163, 0.000000)" id="Shape">
                                <path d="M3.51627907,10.8839583 C1.71162791,11.125 0.297674419,12.8122917 0.186046512,14.5922917 C0.0372093023,16.8729167 2.10232558,18.189375 3.64651163,19.46875 C5.46976744,20.9520833 7.42325581,22.7877083 7.79534884,25.2722917 C8.13023256,27.6085417 6.84651163,30.0560417 4.33488372,30.3527083"></path>
                                <path d="M10.2325581,0 C8.42790698,0.241041667 7.01395349,1.92833333 6.90232558,3.70833333 C6.75348837,5.98895833 8.81860465,7.30541667 10.3627907,8.58479167 C12.1860465,10.068125 14.1395349,11.90375 14.5116279,14.3883333 C14.8465116,16.7245833 13.5627907,19.1720833 11.0511628,19.46875"></path>
                            </g>
                            <path d="M70.2697674,39.1229167 C78.4,40.7916667 81.227907,44.221875 79.4046512,51.28625 C77.544186,58.4989583 64.6697674,66.6572917 64.6697674,66.6572917" id="Shape"></path>
                        </g>
                    </g>
                </g>
            </g>
        </g>
    </g>
</svg>