<?xml version="1.0" encoding="UTF-8" standalone="no"?>
<svg width="118px" height="71px" viewBox="0 0 118 71" version="1.1" xmlns="http://www.w3.org/2000/svg" xmlns:xlink="http://www.w3.org/1999/xlink">
    <!-- Generator: Sketch 40.3 (33839) - http://www.bohemiancoding.com/sketch -->
    <title>lorry</title>
    <desc>Created with Sketch.</desc>
    <defs>
        <path d="M79.0101273,13.9493497 C79.2250595,13.4354588 79.8452748,13.0188679 80.3987057,13.0188679 L92.7748874,13.0188679 C93.3268459,13.0188679 93.7742966,13.4695749 93.7742966,14.0199 L93.7742966,27.6404774 C93.7742966,28.1933321 93.3181351,28.6415094 92.7658077,28.6415094 L73.8736946,28.6415094 C73.3167215,28.6415094 73.0399768,28.2236415 73.254375,27.7110277 L79.0101273,13.9493497 Z" id="path-1"></path>
        <mask id="mask-2" maskContentUnits="userSpaceOnUse" maskUnits="objectBoundingBox" x="0" y="0" width="20.5924784" height="15.6226415" fill="white">
            <use xlink:href="#path-1"></use>
        </mask>
    </defs>
    <g id="Page-1" stroke="none" stroke-width="1" fill="none" fill-rule="evenodd">
        <g id="Desktop" transform="translate(-181.000000, -2628.000000)" stroke="#1966C1">
            <g id="lorry" transform="translate(181.000000, 2628.000000)">
                <g transform="translate(59.500000, 35.500000) scale(-1, 1) translate(-59.500000, -35.500000) translate(2.000000, 1.000000)">
                    <path d="M83.5537143,56.7923077 L65.9943182,56.7923077" id="Shape" stroke-width="3"></path>
                    <path d="M66.4678899,5.30769231 L86.10055,5.49299277 C91.098504,5.49299277 93.6378324,9.74289141 95.8674867,13.5721006 C95.8674867,13.5721006 101.689022,23.8762825 104.599789,29.0283734 C105.017284,29.7673433 106.244322,30.8546534 106.244322,30.8546534" id="Shape" stroke-width="3"></path>
                    <path d="M105.852273,30.5943396 C113.526562,35.0050351 114.80078,40.0643196 114.80078,55.4709033 C114.80078,57.3230769 113.619614,57.4252763 107.614679,57.3230769" id="Shape" stroke-width="3"></path>
                    <path d="M73.803669,36.0923077 L81.8495678,36.0923077" id="Shape" stroke-width="3"></path>
                    <path d="M9.79760159,56.8189793 L1.92857605,56.8189793 C1.37619808,56.8189793 0.928407262,56.3686822 0.928407262,55.8162863 L0.928407262,39.9839211 L65.4022611,39.9839211 L65.4022611,56.8189793 L33.2031894,56.8189793" id="Shape" stroke-width="3"></path>
                    <path d="M36.2655253,47.7692308 L61.0995195,47.7692308" id="Shape" stroke-width="3"></path>
                    <path d="M21.7502508,45.2341259 C28.1708293,45.2341259 33.3771095,50.41889 33.3771095,56.8171096 C33.3771095,63.2153292 28.1708293,68.4000933 21.7502508,68.4000933 C15.3277956,68.4000933 10.1233922,63.2153292 10.1233922,56.8171096 C10.1233922,50.41889 15.3277956,45.2341259 21.7502508,45.2341259" id="Shape" stroke-width="3"></path>
                    <path d="M21.7502508,51.4640697 C24.7193696,51.4640697 27.1235675,53.8610648 27.1235675,56.8189793 C27.1235675,59.7731544 24.7193696,62.1701495 21.7502508,62.1701495 C18.7830089,62.1701495 16.3769342,59.7731544 16.3769342,56.8189793 C16.3750574,53.8610648 18.7830089,51.4640697 21.7502508,51.4640697" id="Shape" stroke-width="3"></path>
                    <path d="M95.2744137,45.2341259 C101.696869,45.2341259 106.901272,50.41889 106.901272,56.8171096 C106.901272,63.2153292 101.696869,68.4000933 95.2744137,68.4000933 C88.8519584,68.4000933 83.647555,63.2153292 83.647555,56.8171096 C83.647555,50.41889 88.8519584,45.2341259 95.2744137,45.2341259" id="Shape" stroke-width="3"></path>
                    <path d="M95.2744137,52.0006825 C97.9432423,52.0006825 100.109085,54.1583521 100.109085,56.8171096 C100.109085,59.4777369 97.9432423,61.6335367 95.2744137,61.6335367 C92.6055851,61.6335367 90.4397425,59.4777369 90.4397425,56.8171096 C90.4378657,54.1602218 92.6055851,52.0006825 95.2744137,52.0006825" id="Shape" stroke-width="3"></path>
                    <path xmlns="http://www.w3.org/2000/svg" d="M79.0101273,13.9493497 C79.2250595,13.4354588 79.8452748,13.0188679 80.3987057,13.0188679 L92.7748874,13.0188679 C93.3268459,13.0188679 93.7742966,13.4695749 93.7742966,14.0199 L93.7742966,27.6404774 C93.7742966,28.1933321 93.3181351,28.6415094 92.7658077,28.6415094 L73.8736946,28.6415094 C73.3167215,28.6415094 73.0399768,28.2236415 73.254375,27.7110277 L79.0101273,13.9493497 Z" id="path-1" transform="translate(83.478057, 20.830189) scale(-1, 1) translate(-83.478057, -20.830189)" style="stroke-width: 3px;" />
                    <path d="M4.82890172,47.7692308 L8.43989059,47.7692308" id="Shape" stroke-width="3"></path>
                    <use id="Rectangle-22" mask="url(#mask-2)" stroke-width="5" transform="translate(83.478057, 20.830189) scale(-1, 1) translate(-83.478057, -20.830189) " xlink:href="#path-1"></use>
                    <rect id="Rectangle-10" stroke-width="3" transform="translate(33.181193, 20.328435) scale(-1, 1) translate(-33.181193, -20.328435) " x="0.949542894" y="0.63689716" width="64.4633011" height="39.3830753"></rect>
                </g>
            </g>
        </g>
    </g>
</svg>